<?xml version="1.0" encoding="UTF-8" standalone="no"?>
<!DOCTYPE svg PUBLIC "-//W3C//DTD SVG 1.1//EN" "http://www.w3.org/Graphics/SVG/1.1/DTD/svg11.dtd">
<svg width="595.20" height="419.52" viewBox="0.00 0.00 2480.00 1748.00" xmlns="http://www.w3.org/2000/svg" xmlns:xlink="http://www.w3.org/1999/xlink">
<g stroke-linecap="round" id="Layer_14">
<path d="M969.72,957.38 C966.59,959.69 962.83,961.07 958.43,960.93 C954.22,960.73 948.41,958.95 945.33,957.11 C942.66,955.47 938.32,950.75 937.13,948.86 C935.96,946.93 935.12,942.13 935.16,940.48 C935.24,938.22 936.89,933.52 938.40,931.54 C940.03,929.49 944.89,926.01 948.13,924.55 C951.29,923.16 958.61,921.11 962.49,920.52 C966.34,919.95 974.18,919.71 978.07,920.03 C981.90,920.37 989.33,921.89 992.84,923.05 C996.37,924.24 1002.78,927.35 1005.49,929.21 C1008.24,931.14 1012.56,935.56 1014.02,937.97 C1015.48,940.45 1016.70,945.46 1016.43,947.95 C1016.11,950.41 1013.79,955.09 1011.91,957.13 C1009.97,959.19 1005.92,961.80 1002.46,963.38 C999.87,964.52 993.81,965.51 989.10,965.71 C984.97,965.86 978.83,964.76 976.59,963.86 C973.06,962.34 972.46,960.74 972.36,958.82 C974.21,957.32 975.46,956.60 976.81,956.42 C978.20,956.25 979.70,956.32 981.24,956.62 C982.47,956.91 985.08,958.57 986.14,959.96 C987.21,961.38 988.08,964.39 987.83,965.36 C987.44,966.55 986.47,967.69 985.14,968.48 C982.45,970.00 976.07,970.47 972.55,969.64 C970.80,969.20 967.73,967.92 966.47,967.11 C964.13,965.52 963.29,962.61 963.08,961.37 C964.82,958.71 965.90,957.53 967.30,956.95 C968.69,956.42 972.16,955.80 973.42,956.01 C974.99,956.32 976.25,959.07 975.70,960.73 C975.15,962.22 973.15,964.25 971.92,964.74 C969.34,965.63 963.40,965.42 960.04,964.18 C958.11,963.43 955.73,961.99 953.97,960.54 C952.52,959.29 951.08,957.43 950.61,956.13 C950.19,954.83 950.34,952.22 950.92,950.88 C952.07,948.41 956.73,944.74 959.00,943.59 C961.08,942.57 965.57,941.19 967.99,940.88 C970.47,940.57 975.68,940.78 978.35,941.27 C981.00,941.79 986.14,943.55 988.52,944.76 C990.93,946.01 995.05,949.02 996.60,950.69 C998.38,952.68 1000.94,958.19 1000.34,961.38 C999.97,963.16 998.06,966.32 996.62,967.73 C995.47,968.82 989.20,972.31 986.01,972.99 C982.86,973.62 976.12,973.75 972.21,973.26 C968.62,972.78 960.96,970.53 958.02,969.17 C954.94,967.71 948.76,963.45 946.57,961.07 C944.18,958.39 941.93,953.99 941.36,950.84 C940.88,947.77 942.78,941.04 944.84,938.31 C946.99,935.58 950.95,932.23 954.08,930.49 C956.87,928.97 963.41,926.87 966.49,926.35 C969.52,925.85 976.73,925.63 980.18,926.03 C983.95,926.51 989.77,928.03 993.23,929.44 C996.21,930.67 1002.01,934.05 1003.61,935.33 C1006.36,937.56 1010.77,942.65 1012.01,945.45 C1012.36,946.28 1013.48,949.92 1013.71,950.95 C1014.04,952.61 1013.57,955.21 1012.66,956.94 C1012.42,957.39 1011.94,958.06 1011.24,958.97" fill="none" stroke="rgb(255, 217, 227)" stroke-width="40.00" stroke-opacity="1.00" stroke-linejoin="round"/>
<path d="M1390.04,957.88 C1388.86,959.01 1386.72,960.72 1385.36,961.47 C1383.58,962.44 1376.95,963.60 1373.78,963.40 C1370.51,963.15 1364.07,961.58 1360.27,960.11 C1356.93,958.80 1350.48,955.19 1348.33,953.36 C1346.51,951.79 1342.39,946.65 1341.36,944.75 C1341.05,944.13 1340.00,940.60 1339.84,939.39 C1339.61,937.52 1340.36,933.81 1341.19,932.04 C1341.83,930.76 1346.31,925.48 1348.93,923.67 C1351.49,921.94 1357.67,918.97 1361.31,917.72 C1364.76,916.55 1372.55,915.14 1375.98,914.94 C1379.32,914.77 1387.22,915.31 1390.64,916.03 C1394.44,916.85 1399.72,918.78 1402.81,920.48 C1404.30,921.34 1406.76,923.33 1408.04,924.79 C1409.35,926.32 1410.68,929.20 1410.96,931.07 C1411.38,934.39 1408.93,941.25 1407.15,944.03 C1405.20,946.98 1401.85,950.66 1399.22,952.71 C1396.82,954.54 1391.17,957.26 1388.59,957.94 C1385.96,958.60 1379.96,958.88 1377.13,958.32 C1373.77,957.62 1367.85,954.87 1365.88,952.66 C1364.99,951.62 1363.79,948.85 1363.69,947.67 C1363.57,945.26 1366.29,940.20 1368.55,938.36 C1370.91,936.50 1376.95,934.54 1380.25,934.56 C1383.60,934.63 1389.28,936.87 1391.32,938.95 C1392.21,939.89 1393.60,942.41 1393.80,943.45 C1393.96,944.49 1393.45,946.96 1392.91,947.89 C1391.66,949.89 1387.50,951.80 1384.47,952.06 C1382.23,952.20 1375.59,950.09 1374.76,949.00 C1374.49,948.64 1374.19,947.78 1373.86,946.42 C1374.64,945.77 1375.90,945.42 1377.15,945.79 C1378.28,946.14 1380.73,947.99 1380.58,948.68 C1380.47,949.15 1377.79,951.42 1376.64,952.43" fill="none" stroke="rgb(255, 217, 227)" stroke-width="40.00" stroke-opacity="1.00" stroke-linejoin="round"/>
<path d="M1039.06,1257.50 C1039.06,1257.50 1038.03,1257.50 1038.03,1257.50 C1045.07,1263.33 1055.43,1270.22 1060.46,1273.01 C1067.25,1276.76 1080.23,1282.43 1088.16,1285.08 C1097.60,1288.13 1107.41,1290.78 1114.10,1292.06 C1117.60,1292.72 1136.15,1295.51 1143.70,1296.16 C1154.09,1296.82 1163.60,1297.01 1174.56,1296.79 C1182.49,1296.47 1196.19,1295.49 1203.09,1294.81 C1208.54,1294.19 1229.27,1290.90 1233.15,1290.08 C1236.77,1289.31 1255.43,1284.26 1259.25,1282.95 C1270.11,1279.22 1296.68,1267.65 1302.28,1264.32 C1306.19,1261.90 1310.45,1258.61 1312.47,1256.21 C1312.84,1255.76 1313.21,1255.31 1313.58,1254.86" fill="none" stroke="rgb(255, 217, 227)" stroke-width="50.00" stroke-opacity="1.00" stroke-linejoin="round"/>
<path d="M911.43,1303.27 C910.49,1305.33 910.20,1306.84 910.88,1308.17 C913.27,1312.77 923.18,1321.15 931.16,1326.49 C937.67,1330.68 949.37,1337.75 956.64,1341.57 C962.75,1344.61 973.74,1349.70 982.63,1353.38 C997.44,1359.22 1026.38,1368.23 1040.07,1371.62 C1060.87,1376.31 1088.42,1380.88 1099.93,1382.29 C1109.53,1383.34 1144.88,1385.13 1160.06,1385.30 C1178.26,1385.10 1204.76,1383.63 1219.62,1382.35 C1235.60,1380.56 1266.75,1376.05 1281.49,1373.51 C1298.91,1370.16 1325.30,1363.67 1339.85,1359.94 C1355.92,1355.53 1387.09,1345.81 1402.20,1340.44 C1415.79,1335.40 1448.74,1322.13 1456.82,1318.39 C1463.76,1315.08 1478.70,1307.48 1481.14,1305.26 C1481.42,1304.99 1481.93,1304.42 1482.65,1303.52" fill="none" stroke="rgb(255, 217, 227)" stroke-width="50.00" stroke-opacity="1.00" stroke-linejoin="round"/>
<path d="M808.59,1358.12 C807.78,1359.58 806.11,1362.49 805.85,1363.23 C804.90,1365.97 806.43,1372.60 808.02,1375.25 C811.13,1380.32 820.67,1391.68 826.14,1396.71 C829.34,1399.64 845.19,1412.68 850.86,1416.78 C854.06,1419.10 868.21,1428.28 874.61,1432.08 C882.82,1436.76 917.99,1453.82 928.73,1458.37 C939.69,1462.73 975.72,1475.02 987.02,1478.21 C1000.86,1481.79 1029.91,1487.65 1045.76,1489.80 C1060.35,1491.64 1083.00,1493.67 1101.64,1494.65 C1121.44,1495.43 1146.28,1495.31 1165.37,1494.31 C1180.83,1493.18 1211.89,1489.91 1227.87,1487.78 C1244.14,1485.23 1277.83,1479.73 1287.57,1477.73 C1300.95,1474.82 1330.47,1467.93 1346.62,1463.96 C1361.95,1459.92 1392.38,1451.64 1407.47,1447.42 C1424.70,1442.22 1453.30,1432.94 1465.87,1428.77 C1478.02,1424.59 1485.99,1421.55 1492.98,1418.44 C1515.69,1408.03 1532.27,1399.37 1543.62,1391.49 C1549.08,1387.67 1563.08,1374.85 1566.13,1370.47 C1566.63,1369.74 1569.10,1365.54 1569.32,1365.09 C1569.51,1364.70 1569.86,1363.87 1570.37,1362.62" fill="none" stroke="rgb(255, 217, 227)" stroke-width="50.00" stroke-opacity="1.00" stroke-linejoin="round"/>
<path d="M1046.50,478.50 C1045.10,479.42 1042.95,479.20 1042.18,479.29 C1040.98,479.46 1040.30,480.98 1040.45,482.98 C1040.87,486.83 1041.59,495.04 1040.50,496.50 C1039.29,497.98 1036.80,498.21 1033.41,497.28 C1032.54,497.03 1031.57,496.77 1030.50,496.50" fill="none" stroke="rgb(33, 29, 114)" stroke-width="24.80" stroke-opacity="1.00" stroke-linejoin="round"/>
<path d="M1040.50,496.50 C1042.69,498.23 1044.72,500.78 1047.23,504.61 C1048.99,507.35 1059.73,523.96 1066.50,532.50 C1073.31,541.06 1098.15,567.96 1108.50,578.50 C1115.04,584.79 1125.60,594.32 1132.69,600.19 C1142.28,607.86 1168.73,626.98 1181.02,634.47 C1191.65,640.77 1217.37,653.32 1223.88,656.42 C1228.41,658.47 1231.11,659.29 1234.50,659.50" fill="none" stroke="rgb(33, 29, 114)" stroke-width="30.00" stroke-opacity="1.00" stroke-linejoin="round"/>
<path d="M969.59,638.25 C969.59,638.25 963.19,649.51 963.19,649.51" fill="none" stroke="rgb(33, 29, 114)" stroke-width="24.80" stroke-opacity="1.00" stroke-linejoin="round"/>
<path d="M959.13,649.95 C958.77,650.05 950.83,662.24 950.50,662.50 C949.91,662.96 948.28,663.68 947.50,665.30 C947.37,665.57 938.01,683.13 934.07,690.65 C930.06,698.80 922.50,715.50 919.35,723.14 C914.55,735.41 903.46,768.55 899.03,782.32 C895.51,794.54 889.90,824.16 887.30,838.82 C885.93,848.25 884.76,862.93 885.12,871.64 C885.27,875.16 885.54,883.38 885.50,883.50 C885.27,884.21 884.50,884.76 884.50,885.50 C884.50,885.97 885.29,886.08 885.50,886.50 C885.56,886.63 884.93,897.14 884.91,899.27 C884.89,906.32 887.92,922.16 890.34,930.61 C892.65,938.60 897.01,949.40 901.75,957.58 C903.84,961.13 914.37,977.44 915.68,982.16 C916.84,986.39 922.80,993.81 930.68,1002.43 C933.73,1005.66 939.21,1011.34 941.65,1013.79 C943.14,1015.32 945.00,1015.84 945.72,1016.10 C946.88,1016.55 947.92,1018.17 948.35,1020.15 C948.56,1021.17 949.28,1025.22 949.50,1026.50" fill="none" stroke="rgb(33, 29, 114)" stroke-width="30.00" stroke-opacity="1.00" stroke-linejoin="round"/>
<path d="M963.50,640.50" fill="none" stroke="rgb(33, 29, 114)" stroke-width="24.80" stroke-opacity="1.00" stroke-linejoin="round"/>
<path d="M1309.50,653.50 C1309.50,653.50 1308.50,662.50 1308.50,662.50" fill="none" stroke="rgb(33, 29, 114)" stroke-width="24.80" stroke-opacity="1.00" stroke-linejoin="round"/>
<path d="M1231.50,659.50 C1231.50,659.50 1232.50,663.50 1232.50,663.50" fill="none" stroke="rgb(33, 29, 114)" stroke-width="24.80" stroke-opacity="1.00" stroke-linejoin="round"/>
<path d="M1263.50,679.50 C1263.52,677.19 1265.34,674.10 1267.90,672.19 C1270.38,670.40 1277.93,668.07 1282.97,666.89 C1287.55,665.89 1308.76,662.42 1310.13,662.82 C1313.27,663.78 1324.25,665.33 1325.50,665.50" fill="none" stroke="rgb(33, 29, 114)" stroke-width="30.00" stroke-opacity="1.00" stroke-linejoin="round"/>
<path d="M1467.50,782.50 C1465.83,782.30 1463.00,781.43 1461.50,780.50 C1460.55,779.91 1429.96,748.46 1416.82,735.64 C1396.75,717.06 1363.76,689.57 1363.50,689.50 C1362.86,689.33 1362.14,689.69 1361.50,689.50 C1361.10,689.38 1339.76,672.46 1335.43,669.76 C1329.60,666.56 1315.24,657.96 1311.41,655.13 C1309.89,654.01 1308.61,652.34 1307.72,650.29 C1306.53,647.54 1306.28,647.22 1304.53,646.17 C1304.19,645.97 1233.35,598.81 1203.50,579.08 C1168.76,556.25 1107.38,515.98 1080.73,498.54 C1070.77,492.06 1053.57,480.89 1051.28,480.18 C1050.40,479.90 1047.18,479.10 1046.50,478.50 C1045.80,477.89 1043.46,474.93 1042.50,474.50 C1041.78,474.19 1038.11,474.76 1036.97,475.15 C1035.51,475.69 1033.53,477.33 1032.91,478.52 C1031.52,481.36 1030.83,495.62 1030.50,496.50 C1030.03,497.73 1027.92,499.85 1027.50,500.50 C1026.87,501.48 1021.12,522.10 1018.31,529.87 C1014.69,539.43 1010.01,550.24 1005.50,558.50 C1001.99,564.71 993.73,578.11 989.39,584.99 C979.19,602.00 970.13,621.55 967.45,627.74 C965.64,632.09 965.45,632.65 964.39,637.69 C963.85,640.14 961.52,644.87 958.50,650.50" fill="none" stroke="rgb(33, 29, 114)" stroke-width="30.00" stroke-opacity="1.00" stroke-linejoin="round"/>
<path d="M831.50,669.50 C829.54,672.48 828.49,675.54 827.54,680.36 C825.16,693.83 819.43,731.60 817.87,745.72 C817.04,754.64 816.00,769.17 815.60,775.36 C815.44,777.54 816.54,783.38 816.56,785.76 C816.59,792.31 816.60,807.60 816.78,816.45 C817.29,827.02 818.66,841.31 819.68,849.09 C820.91,856.79 823.83,872.00 825.50,879.50 C827.71,888.35 832.58,905.22 835.03,913.31 C837.58,921.73 839.58,927.46 842.55,933.79 C845.80,940.63 853.77,950.92 861.27,959.48 C867.44,966.22 877.60,976.70 877.63,976.74 C879.78,978.99 887.36,981.97 888.23,982.90 C890.78,985.82 895.95,990.68 897.69,991.90 C900.54,993.85 906.40,994.96 909.40,995.40 C910.81,995.74 914.17,997.27 915.64,998.23 C916.75,998.97 925.32,1005.57 928.91,1007.49 C930.81,1008.50 936.50,1011.05 937.50,1011.50" fill="none" stroke="rgb(33, 29, 114)" stroke-width="30.00" stroke-opacity="1.00" stroke-linejoin="round"/>
<path d="M1516.50,747.50 C1516.45,754.06 1516.39,769.30 1516.38,777.98 C1516.47,783.38 1517.38,785.45 1517.50,786.50 C1517.55,786.92 1502.47,842.38 1500.54,848.35 C1499.22,852.42 1487.32,878.32 1486.84,879.29 C1485.88,881.17 1484.94,881.99 1482.61,882.98 C1480.18,884.02 1478.77,885.03 1477.72,886.63 C1477.08,887.63 1474.37,892.06 1473.64,893.09 C1472.56,894.58 1469.99,896.78 1468.63,897.30 C1468.22,897.45 1464.33,898.07 1463.50,898.50 C1462.37,899.09 1461.07,900.49 1460.50,901.50" fill="none" stroke="rgb(33, 29, 114)" stroke-width="24.80" stroke-opacity="1.00" stroke-linejoin="round"/>
<path d="M836.50,1007.50 C836.38,1005.51 835.58,1002.86 834.50,1001.50 C833.84,1000.70 826.80,998.20 822.50,995.50 C819.76,993.76 806.28,982.98 800.26,977.78 C793.64,971.80 783.58,961.59 778.60,955.82 C773.31,949.67 765.04,938.42 761.03,931.69 C757.36,925.34 751.37,914.47 747.52,906.21 C744.21,898.92 741.05,886.95 739.93,878.27 C738.65,867.24 738.06,856.22 738.85,850.46 C739.65,844.92 745.17,828.06 747.98,821.63 C751.49,813.65 759.99,799.89 765.37,792.99 C767.93,789.71 773.57,783.35 774.50,782.50 C777.03,780.22 780.28,777.96 782.26,777.20 C784.67,776.31 790.87,775.03 794.40,774.64 C797.84,774.29 802.37,774.66 807.06,775.61 C812.04,776.58 813.17,776.39 815.50,775.50" fill="none" stroke="rgb(33, 29, 114)" stroke-width="30.00" stroke-opacity="1.00" stroke-linejoin="round"/>
<path d="M815.50,775.50 C815.50,775.50 815.50,779.50 815.50,779.50" fill="none" stroke="rgb(33, 29, 114)" stroke-width="24.80" stroke-opacity="1.00" stroke-linejoin="round"/>
<path d="M815.50,779.50 C815.50,779.50 812.50,776.50 812.50,776.50" fill="none" stroke="rgb(33, 29, 114)" stroke-width="24.80" stroke-opacity="1.00" stroke-linejoin="round"/>
<path d="M1469.50,783.50 C1472.19,787.37 1473.57,790.39 1473.67,794.15 C1473.99,804.49 1471.89,837.62 1469.82,856.01 C1469.18,863.48 1468.22,881.63 1469.50,883.50 C1470.46,884.80 1472.49,884.96 1475.02,884.08 C1476.88,883.41 1478.05,883.58 1479.50,884.50" fill="none" stroke="rgb(33, 29, 114)" stroke-width="30.00" stroke-opacity="1.00" stroke-linejoin="round"/>
<path d="M1468.50,784.50 C1468.59,797.70 1468.73,829.89 1467.80,846.47 C1467.00,857.30 1464.86,873.37 1462.86,883.02 C1461.55,889.57 1459.42,900.12 1459.50,900.50 C1459.72,901.53 1460.52,902.45 1460.50,903.50 C1460.50,903.61 1458.05,906.82 1457.50,908.50 C1457.17,909.50 1457.26,912.35 1457.45,914.32 C1457.64,916.12 1457.36,916.87 1456.50,917.50" fill="none" stroke="rgb(33, 29, 114)" stroke-width="24.80" stroke-opacity="1.00" stroke-linejoin="round"/>
<path d="M1517.50,786.50 C1519.24,786.80 1523.88,787.60 1524.50,787.50 C1525.24,787.39 1526.87,786.39 1529.14,786.47 C1534.83,786.58 1542.43,787.02 1544.50,787.50 C1546.83,788.09 1548.21,788.90 1549.69,790.57 C1551.23,792.37 1566.44,806.94 1569.87,811.49 C1572.21,814.66 1575.12,820.22 1576.50,824.50 C1578.16,829.75 1581.58,850.48 1581.83,854.69 C1582.15,860.33 1580.99,874.81 1580.08,880.96 C1578.98,888.20 1574.34,902.07 1570.82,910.67 C1566.80,920.09 1560.80,931.57 1556.15,937.92 C1551.37,944.42 1541.60,955.44 1538.08,958.89 C1532.58,964.26 1520.45,973.91 1514.32,978.59 C1505.43,985.13 1494.42,992.54 1488.44,995.78 C1473.47,1003.85 1462.45,1005.20 1457.50,1005.50" fill="none" stroke="rgb(33, 29, 114)" stroke-width="30.00" stroke-opacity="1.00" stroke-linejoin="round"/>
<path d="M1516.50,793.50 C1521.81,791.17 1523.17,789.85 1524.50,787.50" fill="none" stroke="rgb(33, 29, 114)" stroke-width="24.80" stroke-opacity="1.00" stroke-linejoin="round"/>
<path d="M1197.50,873.50 C1199.10,882.81 1200.14,889.82 1201.22,900.89 C1201.86,909.08 1202.54,921.39 1202.50,921.50 C1202.26,922.21 1201.46,922.76 1201.50,923.50 C1201.83,924.17 1202.17,924.83 1202.50,925.50 C1202.52,925.86 1202.18,926.52 1201.50,927.50" fill="none" stroke="rgb(33, 29, 114)" stroke-width="30.00" stroke-opacity="1.00" stroke-linejoin="round"/>
<path d="M1459.50,901.50 C1459.20,902.68 1458.37,905.93 1458.50,906.50 C1458.66,907.23 1459.49,907.76 1459.50,908.50 C1459.51,908.84 1459.17,909.51 1458.50,910.50" fill="none" stroke="rgb(33, 29, 114)" stroke-width="24.80" stroke-opacity="1.00" stroke-linejoin="round"/>
<path d="M1457.50,910.50 C1457.50,910.50 1457.50,913.50 1457.50,913.50" fill="none" stroke="rgb(33, 29, 114)" stroke-width="24.80" stroke-opacity="1.00" stroke-linejoin="round"/>
<path d="M1456.50,917.50 C1455.47,916.87 1455.53,916.12 1457.00,914.59 C1458.47,913.06 1458.54,911.96 1457.50,910.50" fill="none" stroke="rgb(33, 29, 114)" stroke-width="24.80" stroke-opacity="1.00" stroke-linejoin="round"/>
<path d="M852.50,948.50 C851.82,947.53 850.41,947.41 850.50,948.50 C850.52,948.71 850.85,949.05 851.50,949.50" fill="none" stroke="rgb(33, 29, 114)" stroke-width="24.80" stroke-opacity="1.00" stroke-linejoin="round"/>
<path d="M870.50,994.50 C871.37,993.05 871.62,991.99 871.40,989.96 C871.24,988.33 871.01,984.95 871.00,982.89 C871.03,981.08 872.58,979.25 874.31,979.09 C875.38,979.01 876.43,979.60 877.50,979.50 C877.96,979.47 878.63,979.13 879.50,978.50" fill="none" stroke="rgb(33, 29, 114)" stroke-width="24.80" stroke-opacity="1.00" stroke-linejoin="round"/>
<path d="M912.50,996.50 C913.94,996.39 915.95,996.00 916.50,995.50 C916.54,995.46 917.67,990.78 918.50,988.50" fill="none" stroke="rgb(33, 29, 114)" stroke-width="24.80" stroke-opacity="1.00" stroke-linejoin="round"/>
<path d="M1024.50,1107.50 C1030.92,1108.32 1045.96,1110.32 1054.59,1111.50 C1060.11,1112.38 1065.04,1113.85 1066.50,1115.50" fill="none" stroke="rgb(33, 29, 114)" stroke-width="24.80" stroke-opacity="1.00" stroke-linejoin="round"/>
<path d="M1035.50,1110.50 C1035.50,1110.50 1027.50,1107.50 1027.50,1107.50" fill="none" stroke="rgb(33, 29, 114)" stroke-width="24.80" stroke-opacity="1.00" stroke-linejoin="round"/>
<path d="M1065.50,1116.50 C1043.91,1112.58 1029.72,1109.61 1029.50,1109.50 C1028.33,1108.89 1026.52,1106.51 1026.50,1106.50 C1026.23,1106.41 1020.83,1106.65 1019.50,1106.50 C1018.97,1106.44 1001.15,1100.13 992.90,1096.98 C983.30,1093.03 970.00,1086.91 962.64,1082.83 C956.63,1079.47 942.90,1070.54 937.02,1066.48 C930.25,1061.60 919.69,1053.30 914.92,1048.94 C910.60,1044.97 901.07,1035.09 893.40,1026.33 C887.52,1019.30 873.05,1001.52 872.93,1001.39 C871.29,999.38 870.60,994.53 869.42,992.07 C867.29,987.51 856.86,966.34 856.29,964.02 C856.13,963.37 854.85,957.34 852.63,952.15 C852.25,951.26 851.88,950.38 851.50,949.50" fill="none" stroke="rgb(33, 29, 114)" stroke-width="30.00" stroke-opacity="1.00" stroke-linejoin="round"/>
<path d="M1067.50,1116.50 C1069.31,1120.24 1070.39,1123.34 1070.95,1126.96 C1071.79,1132.75 1073.70,1164.93 1073.63,1169.96 C1073.54,1173.96 1072.25,1177.46 1072.30,1178.23 C1072.41,1179.33 1073.90,1180.90 1075.56,1181.85 C1083.10,1186.07 1097.83,1191.69 1106.32,1193.13 C1109.67,1193.68 1150.30,1197.46 1164.25,1197.54 C1183.75,1197.27 1208.90,1195.85 1226.55,1193.74 C1227.20,1193.66 1227.85,1193.58 1228.50,1193.50" fill="none" stroke="rgb(33, 29, 114)" stroke-width="30.00" stroke-opacity="1.00" stroke-linejoin="round"/>
<path d="M1277.50,1177.50 C1282.19,1174.36 1287.37,1171.69 1287.50,1171.50 C1287.56,1171.41 1287.97,1149.16 1288.29,1141.07 C1288.54,1136.15 1289.40,1128.31 1290.42,1123.67 C1291.15,1120.41 1292.11,1115.40 1293.50,1114.50 C1293.87,1114.27 1314.87,1107.14 1319.57,1105.18 C1327.47,1101.84 1341.01,1094.12 1347.09,1089.89 C1351.01,1087.16 1365.19,1075.84 1370.79,1070.96 C1376.33,1066.00 1386.59,1055.41 1392.31,1048.76 C1397.05,1043.11 1405.83,1032.13 1410.20,1025.98 C1415.15,1018.79 1422.15,1007.15 1425.50,1000.50 C1427.28,996.95 1435.00,979.50 1438.10,971.92 C1443.86,957.16 1452.08,932.03 1454.50,924.50" fill="none" stroke="rgb(33, 29, 114)" stroke-width="30.00" stroke-opacity="1.00" stroke-linejoin="round"/>
<path d="M1066.50,1117.50 C1068.04,1125.06 1068.54,1134.21 1068.54,1145.58 C1068.37,1154.26 1067.96,1170.56 1067.73,1178.19 C1067.51,1183.43 1066.46,1188.93 1066.50,1189.50 C1066.58,1190.68 1067.01,1193.46 1066.37,1195.26 C1063.11,1205.40 1057.75,1216.26 1053.31,1223.01 C1050.88,1226.69 1046.68,1232.38 1043.94,1235.12 C1040.91,1238.11 1033.94,1243.32 1030.31,1245.52 C1020.96,1251.09 993.80,1261.47 988.50,1263.50" fill="none" stroke="rgb(33, 29, 114)" stroke-width="30.00" stroke-opacity="1.00" stroke-linejoin="round"/>
<path d="M1291.50,1118.50 C1292.46,1122.53 1292.81,1138.29 1292.97,1146.41 C1293.42,1174.38 1293.87,1181.98 1294.50,1187.50" fill="none" stroke="rgb(33, 29, 114)" stroke-width="24.80" stroke-opacity="1.00" stroke-linejoin="round"/>
<path d="M1240.50,1191.50 C1256.21,1185.51 1277.19,1177.48 1277.50,1177.50 C1278.24,1177.56 1279.97,1178.66 1281.89,1178.52 C1283.67,1178.42 1287.02,1178.23 1289.05,1178.20 C1290.95,1178.18 1292.57,1179.14 1292.74,1180.40 C1292.82,1181.10 1292.35,1181.81 1292.50,1182.50 C1292.55,1182.77 1292.89,1183.10 1293.50,1183.50" fill="none" stroke="rgb(33, 29, 114)" stroke-width="24.80" stroke-opacity="1.00" stroke-linejoin="round"/>
<path d="M1294.50,1182.50 C1294.67,1184.57 1295.16,1190.62 1296.02,1193.78 C1297.66,1199.70 1305.30,1216.19 1309.03,1222.77 C1311.04,1226.31 1315.15,1232.44 1317.26,1234.74 C1320.62,1238.32 1333.09,1244.91 1343.19,1249.29 C1348.59,1251.55 1356.10,1254.45 1356.50,1254.50 C1357.37,1254.61 1361.91,1254.30 1362.50,1254.50 C1363.37,1254.78 1366.22,1257.46 1366.50,1257.50 C1367.18,1257.61 1367.83,1256.86 1368.50,1257.00 C1369.32,1257.17 1370.82,1258.67 1372.88,1258.92 C1373.25,1258.97 1452.03,1271.75 1459.50,1272.50" fill="none" stroke="rgb(33, 29, 114)" stroke-width="24.80" stroke-opacity="1.00" stroke-linejoin="round"/>
<path d="M1084.50,1186.50 C1081.08,1186.73 1070.79,1187.45 1070.50,1187.50 C1069.00,1187.75 1068.15,1189.05 1067.50,1191.50" fill="none" stroke="rgb(33, 29, 114)" stroke-width="24.80" stroke-opacity="1.00" stroke-linejoin="round"/>
<path d="M1228.50,1193.50 C1228.50,1193.50 1233.50,1193.50 1233.50,1193.50" fill="none" stroke="rgb(33, 29, 114)" stroke-width="24.80" stroke-opacity="1.00" stroke-linejoin="round"/>
<path d="M1105.50,1193.50 C1106.49,1193.57 1109.03,1193.75 1109.50,1194.00 C1110.50,1194.75 1111.80,1195.66 1113.57,1195.93 C1113.79,1195.97 1135.94,1200.01 1143.10,1200.78 C1151.56,1201.67 1167.09,1201.98 1176.76,1201.48 C1183.74,1201.07 1202.56,1199.90 1204.85,1199.61 C1209.13,1199.06 1226.21,1195.19 1233.50,1193.50" fill="none" stroke="rgb(33, 29, 114)" stroke-width="24.80" stroke-opacity="1.00" stroke-linejoin="round"/>
<path d="M1360.50,1255.50 C1392.54,1260.43 1452.28,1269.93 1453.50,1270.50 C1454.67,1271.03 1457.30,1273.50 1457.50,1273.50 C1457.80,1273.50 1458.46,1273.17 1459.50,1272.50" fill="none" stroke="rgb(33, 29, 114)" stroke-width="24.80" stroke-opacity="1.00" stroke-linejoin="round"/>
<path d="M981.50,1265.50 C980.92,1264.46 980.04,1264.54 978.10,1266.05 C976.83,1267.02 975.96,1267.51 975.50,1267.50 C974.45,1267.50 973.55,1266.53 972.50,1266.50 C971.82,1266.48 968.13,1269.29 967.50,1269.50 C967.11,1269.63 966.45,1269.63 965.50,1269.50" fill="none" stroke="rgb(33, 29, 114)" stroke-width="24.80" stroke-opacity="1.00" stroke-linejoin="round"/>
<path d="M981.50,1265.50 C977.74,1265.99 970.53,1268.05 970.00,1268.00 C969.15,1267.92 968.35,1267.44 967.50,1267.50 C967.02,1267.54 963.81,1269.63 962.33,1270.43 C960.62,1271.36 957.84,1271.71 956.02,1271.27 C955.17,1271.04 954.38,1270.43 953.50,1270.50 C953.13,1270.53 952.46,1270.86 951.50,1271.50" fill="none" stroke="rgb(33, 29, 114)" stroke-width="24.80" stroke-opacity="1.00" stroke-linejoin="round"/>
<path d="M961.50,1269.50 C961.50,1269.50 965.50,1269.50 965.50,1269.50" fill="none" stroke="rgb(33, 29, 114)" stroke-width="24.80" stroke-opacity="1.00" stroke-linejoin="round"/>
<path d="M956.50,1270.50 C956.50,1270.50 961.50,1270.50 961.50,1270.50" fill="none" stroke="rgb(33, 29, 114)" stroke-width="24.80" stroke-opacity="1.00" stroke-linejoin="round"/>
<path d="M965.50,1269.50 C965.50,1269.50 961.50,1270.50 961.50,1270.50" fill="none" stroke="rgb(33, 29, 114)" stroke-width="24.80" stroke-opacity="1.00" stroke-linejoin="round"/>
<path d="M947.50,1272.50 C947.50,1272.50 951.50,1271.50 951.50,1271.50" fill="none" stroke="rgb(33, 29, 114)" stroke-width="24.80" stroke-opacity="1.00" stroke-linejoin="round"/>
<path d="M957.50,1271.50 C957.50,1271.50 952.50,1272.50 952.50,1272.50" fill="none" stroke="rgb(33, 29, 114)" stroke-width="24.80" stroke-opacity="1.00" stroke-linejoin="round"/>
<path d="M942.50,1273.50 C942.50,1273.50 947.50,1272.50 947.50,1272.50" fill="none" stroke="rgb(33, 29, 114)" stroke-width="24.80" stroke-opacity="1.00" stroke-linejoin="round"/>
<path d="M952.50,1272.50 C952.50,1272.50 948.50,1273.50 948.50,1273.50" fill="none" stroke="rgb(33, 29, 114)" stroke-width="24.80" stroke-opacity="1.00" stroke-linejoin="round"/>
<path d="M937.50,1274.50 C937.50,1274.50 942.50,1273.50 942.50,1273.50" fill="none" stroke="rgb(33, 29, 114)" stroke-width="24.80" stroke-opacity="1.00" stroke-linejoin="round"/>
<path d="M948.50,1273.50 C948.50,1273.50 943.50,1274.50 943.50,1274.50" fill="none" stroke="rgb(33, 29, 114)" stroke-width="24.80" stroke-opacity="1.00" stroke-linejoin="round"/>
<path d="M932.50,1275.50 C932.50,1275.50 937.50,1274.50 937.50,1274.50" fill="none" stroke="rgb(33, 29, 114)" stroke-width="24.80" stroke-opacity="1.00" stroke-linejoin="round"/>
<path d="M943.50,1274.50 C943.50,1274.50 938.50,1275.50 938.50,1275.50" fill="none" stroke="rgb(33, 29, 114)" stroke-width="24.80" stroke-opacity="1.00" stroke-linejoin="round"/>
<path d="M1466.50,1274.50 C1476.34,1277.57 1484.54,1280.47 1492.78,1284.51 C1500.26,1288.28 1514.06,1296.55 1519.35,1300.65 C1525.13,1305.14 1535.28,1314.87 1540.72,1321.20 C1543.79,1324.78 1553.75,1337.82 1558.06,1343.84 C1562.53,1350.25 1570.73,1364.61 1574.26,1372.21 C1580.28,1385.44 1590.41,1413.84 1593.50,1422.50" fill="none" stroke="rgb(33, 29, 114)" stroke-width="24.80" stroke-opacity="1.00" stroke-linejoin="round"/>
<path d="M928.50,1276.50 C928.50,1276.50 932.50,1275.50 932.50,1275.50" fill="none" stroke="rgb(33, 29, 114)" stroke-width="24.80" stroke-opacity="1.00" stroke-linejoin="round"/>
<path d="M938.50,1275.50 C938.50,1275.50 933.50,1276.50 933.50,1276.50" fill="none" stroke="rgb(33, 29, 114)" stroke-width="24.80" stroke-opacity="1.00" stroke-linejoin="round"/>
<path d="M923.50,1277.50 C923.50,1277.50 928.50,1276.50 928.50,1276.50" fill="none" stroke="rgb(33, 29, 114)" stroke-width="24.80" stroke-opacity="1.00" stroke-linejoin="round"/>
<path d="M933.50,1276.50 C933.50,1276.50 929.50,1277.50 929.50,1277.50" fill="none" stroke="rgb(33, 29, 114)" stroke-width="24.80" stroke-opacity="1.00" stroke-linejoin="round"/>
<path d="M918.50,1278.50 C918.50,1278.50 923.50,1277.50 923.50,1277.50" fill="none" stroke="rgb(33, 29, 114)" stroke-width="24.80" stroke-opacity="1.00" stroke-linejoin="round"/>
<path d="M929.50,1277.50 C929.50,1277.50 924.50,1278.50 924.50,1278.50" fill="none" stroke="rgb(33, 29, 114)" stroke-width="24.80" stroke-opacity="1.00" stroke-linejoin="round"/>
<path d="M905.50,1282.50 C911.01,1281.16 915.71,1278.54 916.50,1278.50 C917.46,1278.46 922.07,1279.55 922.50,1279.50 C922.92,1279.45 923.59,1279.12 924.50,1278.50" fill="none" stroke="rgb(33, 29, 114)" stroke-width="24.80" stroke-opacity="1.00" stroke-linejoin="round"/>
<path d="M910.50,1280.50 C910.50,1280.50 914.50,1280.50 914.50,1280.50" fill="none" stroke="rgb(33, 29, 114)" stroke-width="24.80" stroke-opacity="1.00" stroke-linejoin="round"/>
<path d="M919.50,1279.50 C919.50,1279.50 914.50,1280.50 914.50,1280.50" fill="none" stroke="rgb(33, 29, 114)" stroke-width="24.80" stroke-opacity="1.00" stroke-linejoin="round"/>
<path d="M897.50,1284.50 C902.14,1283.15 906.76,1280.54 907.50,1280.50 C908.36,1280.46 912.11,1281.55 912.50,1281.50 C912.88,1281.45 913.55,1281.12 914.50,1280.50" fill="none" stroke="rgb(33, 29, 114)" stroke-width="24.80" stroke-opacity="1.00" stroke-linejoin="round"/>
<path d="M901.50,1282.50 C901.50,1282.50 905.50,1282.50 905.50,1282.50" fill="none" stroke="rgb(33, 29, 114)" stroke-width="24.80" stroke-opacity="1.00" stroke-linejoin="round"/>
<path d="M897.50,1284.50 C896.02,1283.47 894.96,1283.53 893.50,1285.00 C892.05,1286.47 890.98,1286.54 889.50,1285.50" fill="none" stroke="rgb(33, 29, 114)" stroke-width="24.80" stroke-opacity="1.00" stroke-linejoin="round"/>
<path d="M889.50,1285.50 C891.00,1284.55 891.74,1284.47 893.39,1285.19 C894.74,1285.74 896.05,1285.34 897.50,1284.00 C898.95,1282.66 900.27,1282.27 901.61,1282.81 C903.26,1283.53 904.01,1283.45 905.50,1282.50" fill="none" stroke="rgb(33, 29, 114)" stroke-width="24.80" stroke-opacity="1.00" stroke-linejoin="round"/>
<path d="M1595.50,1429.50 C1596.45,1430.99 1596.53,1431.76 1595.81,1433.44 C1595.26,1434.81 1595.62,1435.86 1597.00,1437.23 C1598.31,1438.54 1598.76,1440.75 1598.21,1443.35 C1597.98,1444.40 1597.39,1445.43 1597.50,1446.50 C1597.54,1446.97 1598.63,1447.70 1598.90,1449.53 C1598.93,1449.73 1602.48,1470.58 1603.79,1479.59 C1605.57,1493.55 1608.24,1527.87 1609.18,1543.01 C1609.92,1559.26 1610.42,1578.08 1610.50,1581.50" fill="none" stroke="rgb(33, 29, 114)" stroke-width="24.80" stroke-opacity="1.00" stroke-linejoin="round"/>
<path d="M1610.50,1568.50 C1612.62,1565.60 1613.69,1561.84 1613.89,1557.28 C1614.06,1552.20 1613.32,1535.61 1612.85,1529.69 C1611.91,1519.80 1606.10,1481.05 1603.24,1463.25 C1601.90,1455.89 1599.81,1443.81 1599.50,1443.50 C1598.65,1442.65 1597.15,1442.51 1596.50,1441.50 C1596.27,1441.15 1597.72,1436.68 1597.50,1435.50 C1597.33,1434.45 1594.52,1431.74 1594.50,1431.50 C1594.47,1431.19 1594.81,1430.52 1595.50,1429.50" fill="none" stroke="rgb(33, 29, 114)" stroke-width="24.80" stroke-opacity="1.00" stroke-linejoin="round"/>
<path d="M738.50,1546.50 C738.94,1541.86 738.86,1537.94 737.66,1534.36 C737.26,1533.18 735.78,1529.40 735.17,1527.84 C734.16,1525.18 735.52,1519.90 735.30,1518.68 C733.20,1506.94 732.51,1499.51 732.02,1488.85 C731.79,1480.81 731.46,1464.30 731.36,1455.83 C731.40,1445.35 731.91,1431.73 733.26,1425.53 C733.79,1423.12 734.64,1417.85 734.83,1415.76 C734.96,1414.38 735.42,1408.18 737.50,1402.50 C738.42,1400.03 747.49,1380.60 751.42,1372.47 C753.97,1367.46 757.42,1361.27 759.04,1359.20 C760.04,1357.94 778.26,1339.72 779.25,1338.76 C785.96,1332.29 796.29,1324.73 803.39,1320.65 C809.49,1317.22 826.22,1308.01 828.62,1306.81 C839.18,1301.55 867.77,1292.01 875.50,1289.50" fill="none" stroke="rgb(33, 29, 114)" stroke-width="24.80" stroke-opacity="1.00" stroke-linejoin="round"/>
<path d="M736.50,1531.50 C735.97,1528.86 736.61,1526.34 736.50,1525.50 C736.47,1525.31 734.07,1522.68 733.50,1521.50 C733.25,1520.98 728.54,1498.93 727.71,1492.68 C726.56,1483.96 726.17,1467.30 726.78,1459.42 C728.01,1444.04 731.81,1421.31 733.50,1417.50 C734.22,1415.85 736.51,1411.74 736.50,1411.50 C736.49,1411.25 736.15,1410.92 735.50,1410.50" fill="none" stroke="rgb(33, 29, 114)" stroke-width="24.80" stroke-opacity="1.00" stroke-linejoin="round"/>
<path d="M736.50,1528.50 C736.50,1528.50 736.50,1531.50 736.50,1531.50" fill="none" stroke="rgb(33, 29, 114)" stroke-width="24.80" stroke-opacity="1.00" stroke-linejoin="round"/>
<path d="M977.03,337.88 C976.00,337.92 968.74,337.04 967.08,336.77 C957.03,334.95 946.00,333.85 937.49,334.60 C930.28,335.26 919.41,338.31 911.77,341.50 C905.66,344.09 896.07,350.02 887.54,356.01 C880.07,361.44 869.94,369.86 864.54,374.63 C859.11,379.61 848.00,390.85 842.74,396.44 C839.21,400.29 829.50,411.84 824.92,417.64 C814.26,431.85 801.07,450.96 792.13,466.14 C786.52,476.01 772.64,503.65 765.18,520.37 C759.32,534.31 748.27,563.79 743.92,578.16 C739.58,593.56 733.49,617.53 729.49,638.73 C724.21,670.31 712.55,740.15 707.99,762.21 C704.44,777.89 695.41,811.21 691.67,822.74 C689.18,830.11 683.91,844.48 681.07,851.45 C678.09,858.39 670.61,874.40 668.48,878.42 C660.33,893.42 645.72,915.95 636.22,927.92 C631.31,934.08 607.26,960.68 597.55,970.25 C585.85,981.49 562.42,1004.01 550.24,1016.08 C547.11,1019.30 538.70,1028.96 532.35,1036.96 C526.38,1044.71 518.96,1055.82 514.88,1063.04 C510.91,1070.11 504.63,1084.07 501.68,1091.21 C497.96,1100.57 495.09,1109.03 493.02,1117.41 C490.58,1127.70 488.25,1141.34 487.59,1147.61 C486.68,1156.86 486.20,1172.41 486.39,1178.33 C486.78,1187.23 487.46,1195.15 488.60,1204.07 C489.18,1208.17 492.17,1223.32 493.80,1229.68 C497.78,1244.08 505.91,1265.43 512.53,1278.98 C515.53,1284.87 523.32,1298.36 525.42,1301.77 C529.35,1308.11 539.14,1320.74 544.03,1326.97 C551.29,1335.69 558.98,1343.98 565.47,1350.41 C572.78,1357.32 581.74,1364.98 587.29,1369.46 C594.96,1375.38 605.07,1382.32 611.44,1386.43 C617.61,1390.29 631.61,1398.11 635.88,1400.18 C639.99,1402.18 660.23,1410.36 663.76,1411.54 C669.64,1413.49 682.67,1416.40 691.44,1417.69 C706.31,1419.78 724.41,1417.23 728.05,1416.31 C728.07,1416.30 728.12,1416.30 728.11,1416.31" fill="none" stroke="rgb(33, 29, 114)" stroke-width="30.00" stroke-opacity="1.00" stroke-linejoin="round"/>
<path d="M971.46,327.01 C970.43,325.72 970.79,320.66 972.06,316.51 C973.76,311.08 982.05,296.57 986.23,290.95 C991.34,284.25 999.97,274.56 1004.72,270.32 C1009.29,266.26 1020.06,258.44 1026.17,254.93 C1033.06,251.08 1047.48,243.27 1054.22,239.94 C1062.72,235.93 1075.90,230.43 1083.23,227.69 C1102.47,220.96 1123.89,215.22 1140.78,212.21 C1150.73,210.59 1161.93,209.25 1169.44,208.51 C1176.97,207.92 1192.44,207.34 1200.28,207.29 C1215.97,207.60 1243.52,209.98 1257.20,211.95 C1272.64,214.41 1302.13,220.99 1317.07,225.30 C1326.59,228.22 1339.39,232.66 1346.83,235.43 C1354.15,238.32 1368.73,244.67 1375.95,248.06 C1381.16,250.60 1397.17,259.19 1404.08,263.14 C1419.80,272.65 1444.80,290.21 1456.29,299.42 C1468.72,309.75 1490.92,330.65 1501.23,341.72 C1510.91,352.48 1528.63,375.20 1537.08,387.79 C1539.88,392.10 1549.47,408.32 1551.38,411.91 C1555.04,419.03 1561.32,432.28 1564.84,440.65 C1570.50,455.00 1579.38,483.09 1583.25,498.61 C1587.37,517.49 1590.70,535.85 1592.93,552.68 C1595.73,575.64 1603.00,669.70 1605.16,682.85 C1606.09,688.04 1610.25,706.44 1611.67,711.37 C1613.69,718.31 1620.42,733.87 1623.79,739.68 C1627.31,745.71 1635.14,756.61 1640.47,762.48 C1645.34,767.82 1652.64,774.65 1658.88,779.80 C1664.87,784.64 1677.67,794.95 1684.48,800.41 C1693.09,807.52 1703.31,816.52 1708.59,822.38 C1714.27,828.76 1720.22,836.28 1724.25,842.16 C1729.05,849.21 1733.69,856.89 1738.10,865.89 C1742.55,875.15 1748.44,888.56 1751.30,896.16 C1757.07,912.42 1764.12,937.11 1768.45,955.18 C1771.31,968.82 1776.23,995.90 1778.73,1014.16 C1780.59,1029.79 1783.29,1061.25 1784.10,1077.12 C1784.58,1092.35 1784.38,1123.63 1783.87,1138.23 C1782.93,1153.42 1779.91,1182.61 1777.85,1197.29 C1775.64,1211.04 1768.97,1240.48 1764.57,1255.07 C1761.46,1264.68 1757.02,1276.41 1754.12,1283.49 C1751.18,1290.24 1745.11,1302.86 1741.96,1308.88 C1739.18,1314.01 1728.88,1330.26 1726.46,1333.66 C1722.59,1339.07 1710.37,1353.23 1707.35,1356.34 C1702.85,1360.98 1692.31,1370.14 1686.73,1374.21 C1680.57,1378.60 1669.17,1385.31 1662.90,1388.22 C1655.83,1391.41 1641.95,1396.10 1635.71,1397.20 C1632.52,1397.75 1622.69,1398.97 1619.86,1398.95 C1616.22,1398.91 1607.49,1396.81 1606.34,1396.42 C1604.85,1395.88 1603.12,1394.53 1601.68,1392.90 C1601.43,1392.60 1600.89,1391.95 1600.07,1390.95" fill="none" stroke="rgb(33, 29, 114)" stroke-width="30.00" stroke-opacity="1.00" stroke-linejoin="round"/>
<path d="M956.83,679.29 C959.50,677.37 966.65,673.96 968.18,673.30 C972.03,671.67 988.77,668.47 994.48,668.33 C1000.17,668.21 1010.56,668.98 1017.80,670.28 C1022.53,671.14 1038.78,675.37 1043.76,677.53 C1048.92,679.84 1050.17,680.57 1052.14,681.88" fill="none" stroke="rgb(33, 29, 114)" stroke-width="30.00" stroke-opacity="1.00" stroke-linejoin="round"/>
<path d="M1125.13,985.10 C1125.03,988.87 1126.20,992.95 1127.92,994.83 C1129.64,996.62 1133.86,998.87 1137.54,1000.16 C1141.21,1001.40 1159.20,1003.46 1167.49,1003.49 C1174.30,1003.51 1193.46,1002.41 1197.65,1001.94 C1206.52,1000.93 1220.70,997.88 1224.93,996.14 C1228.77,994.54 1234.41,990.90 1235.58,989.81 C1236.90,988.56 1237.76,987.16 1238.10,985.90" fill="none" stroke="rgb(33, 29, 114)" stroke-width="30.00" stroke-opacity="1.00" stroke-linejoin="round"/>
<path d="M1011.50,774.50 C1009.85,774.59 1005.80,778.70 1004.09,782.00 C1000.35,789.37 996.89,800.93 996.09,808.08 C995.48,813.76 995.40,831.89 995.73,836.27 C996.34,843.99 999.63,859.18 1002.27,866.47 C1003.77,870.50 1007.29,876.31 1010.65,879.93 C1012.02,881.31 1013.65,881.88 1014.66,881.11 C1015.65,880.28 1020.28,870.71 1021.13,868.52 C1023.37,862.69 1025.64,845.40 1026.16,839.56 C1026.74,832.42 1025.93,817.14 1024.98,809.70 C1024.44,805.63 1023.35,801.08 1021.95,796.48 C1021.48,794.89 1021.75,790.74 1020.45,788.07 C1018.79,784.72 1014.47,776.49 1013.39,775.34 C1012.85,774.79 1012.22,774.51 1011.50,774.50 Z" fill="none" stroke="rgb(33, 29, 114)" stroke-width="24.80" stroke-opacity="1.00" stroke-linejoin="round"/>
<path d="M1315.50,882.50 C1314.51,881.62 1308.86,876.52 1306.50,872.50 C1303.99,868.13 1299.17,852.47 1297.83,845.04 C1296.61,838.10 1295.35,822.74 1295.59,816.28 C1295.77,811.98 1298.22,792.80 1299.37,789.29 C1300.25,786.69 1304.52,780.03 1306.36,778.45 C1307.52,777.54 1309.96,777.52 1311.24,778.53 C1313.84,780.67 1325.26,800.70 1325.50,801.50 C1325.76,802.38 1329.75,822.82 1330.61,828.53 C1331.52,834.91 1331.62,847.51 1330.50,853.50 C1329.85,856.90 1327.99,863.65 1326.41,868.79 C1325.44,871.91 1323.85,874.65 1323.22,875.58" fill="none" stroke="rgb(33, 29, 114)" stroke-width="24.80" stroke-opacity="1.00" stroke-linejoin="round"/>
<path d="M1013.46,808.25 C1013.46,809.31 1013.46,810.03 1013.46,810.40 C1013.51,813.75 1015.10,850.46 1015.09,858.84 C1013.42,856.17 1012.54,843.90 1012.61,831.29 C1012.65,827.55 1012.93,823.90 1013.58,822.66 C1013.58,822.66 1014.33,825.68 1014.33,825.68 C1014.76,822.23 1017.13,815.40 1017.40,814.31 C1017.96,812.03 1018.67,800.98 1018.79,800.48 C1018.89,800.10 1019.14,799.51 1019.56,798.69" fill="none" stroke="rgb(33, 29, 114)" stroke-width="20.00" stroke-opacity="1.00" stroke-linejoin="round"/>
<path d="M1324.04,810.81 C1324.53,817.53 1325.68,834.62 1325.71,838.11 C1325.73,841.15 1325.79,847.16 1324.81,850.26 C1323.32,848.63 1322.46,847.48 1322.05,846.19 C1320.94,842.69 1317.26,823.95 1317.14,819.75 C1317.14,819.75 1316.80,834.67 1316.80,834.67 C1316.80,834.67 1316.11,833.07 1316.11,833.07 C1316.11,833.07 1314.65,839.75 1314.65,839.75 C1313.33,838.04 1312.77,836.81 1312.50,834.64 C1311.56,827.22 1310.90,816.79 1310.82,815.44 C1311.78,839.57 1313.94,857.31 1314.28,875.59 C1314.29,876.42 1314.29,877.24 1314.29,878.07 C1314.30,878.92 1314.40,879.78 1314.31,880.62 C1314.27,880.98 1314.20,879.91 1314.16,879.56" fill="none" stroke="rgb(33, 29, 114)" stroke-width="20.00" stroke-opacity="1.00" stroke-linejoin="round"/>
<path d="M1311.11,790.07 C1311.14,790.09 1311.17,790.19 1311.18,790.39 C1312.22,803.13 1313.65,855.33 1313.67,856.45 C1313.67,856.49 1313.68,856.64 1313.68,856.59" fill="none" stroke="rgb(33, 29, 114)" stroke-width="20.00" stroke-opacity="1.00" stroke-linejoin="round"/>
<path d="M1314.27,793.92 C1314.27,793.92 1315.45,850.51 1315.45,850.51 C1315.45,850.51 1313.79,820.21 1313.79,820.21 C1313.78,820.32 1314.70,856.58 1314.90,864.62 C1314.96,866.90 1315.04,870.85 1315.06,872.51" fill="none" stroke="rgb(33, 29, 114)" stroke-width="20.00" stroke-opacity="1.00" stroke-linejoin="round"/>
<path d="M1016.90,811.12 C1016.90,811.12 1014.76,793.27 1014.76,793.27 C1014.76,793.27 1011.82,809.24 1011.82,809.24" fill="none" stroke="rgb(33, 29, 114)" stroke-width="20.00" stroke-opacity="1.00" stroke-linejoin="round"/>
<path d="M933.17,827.62 C933.17,827.62 932.53,828.87 932.53,828.87 C933.04,824.26 934.93,819.37 936.30,816.91 C939.42,811.38 947.74,800.41 953.23,795.35 C958.11,790.88 971.24,781.56 977.54,778.11 C982.94,775.18 993.81,770.66 1000.18,768.98 C1005.65,767.55 1011.77,766.44 1013.72,766.58 C1014.05,766.60 1014.78,766.69 1015.90,766.84" fill="none" stroke="rgb(33, 29, 114)" stroke-width="25.00" stroke-opacity="1.00" stroke-linejoin="round"/>
<path d="M1305.20,775.90 C1305.18,776.09 1320.70,776.45 1326.52,777.43 C1333.34,778.61 1346.50,783.05 1353.61,786.85 C1358.89,789.69 1370.07,796.98 1377.28,802.53 C1385.23,808.76 1391.86,815.63 1394.00,819.17 C1394.19,819.49 1394.23,819.69 1394.10,819.75" fill="none" stroke="rgb(33, 29, 114)" stroke-width="25.00" stroke-opacity="1.00" stroke-linejoin="round"/>
<path d="M1086.64,1190.78 C1086.28,1191.17 1086.13,1191.45 1086.21,1191.61 C1086.82,1192.84 1103.97,1199.43 1111.53,1201.27 C1118.66,1202.97 1133.84,1205.01 1141.30,1205.83 C1151.45,1206.78 1160.97,1207.24 1172.07,1207.38 C1179.88,1207.44 1187.20,1206.96 1197.37,1205.63 C1205.22,1204.53 1220.88,1202.22 1227.85,1201.04 C1245.35,1197.75 1258.31,1192.74 1267.07,1188.71 C1262.84,1190.33 1251.44,1193.73 1244.14,1195.09 C1237.34,1196.29 1221.18,1198.56 1213.37,1199.36 C1202.14,1200.28 1171.72,1201.51 1152.89,1201.44 C1120.38,1200.64 1089.07,1197.57 1084.54,1197.61 C1084.54,1197.61 1084.03,1198.61 1084.03,1198.61 C1089.59,1201.13 1098.32,1203.07 1108.63,1204.82 C1128.91,1208.00 1155.39,1210.79 1169.59,1211.54 C1182.41,1211.99 1213.93,1210.63 1228.82,1208.91 C1234.11,1208.24 1250.64,1205.54 1257.61,1204.02 C1267.11,1201.82 1275.72,1199.00 1284.41,1195.03 C1287.76,1193.47 1291.14,1191.20 1292.07,1190.42" fill="none" stroke="rgb(33, 29, 114)" stroke-width="30.00" stroke-opacity="1.00" stroke-linejoin="round"/>
</g>
</svg>
