<svg version="1.1" xmlns="http://www.w3.org/2000/svg" xmlns:xlink="http://www.w3.org/1999/xlink" width="1560" height="804"><defs/><g><path fill="none" stroke="#02063B" paint-order="fill stroke markers" d=" M 20 413.2485102631493 L 21 413.7622043955744 L 22 414.26890172769515 L 23 414.7683008483196 L 24 415.26010468762973 L 25 415.74402069389487 L 26 416.2197610074973 L 27 416.68704263216716 L 28 417.1455876033236 L 29 417.5951231534235 L 30 418.0353818742187 L 31 418.4661018758245 L 32 418.8870269425065 L 33 419.2979066850914 L 34 419.69849668991213 L 35 420.08855866419873 L 36 420.46786057782754 L 37 420.8361768013454 L 38 421.1932882401866 L 39 421.53898246500194 L 40 421.8730538380236 L 41 422.1953036353895 L 42 422.50554016535506 L 43 422.8035788823219 L 44 423.08924249661595 L 45 423.36236107994847 L 46 423.6227721664991 L 47 423.8703208495591 L 48 424.1048598736786 L 49 424.3262497222618 L 50 424.5343587005594 L 51 424.7290630140075 L 52 424.9102468418677 L 53 425.0778024061232 L 54 425.23163003559137 L 55 425.3716382252134 L 56 425.4977436904866 L 57 425.6098714170065 L 58 425.70795470508955 L 59 425.7919352094498 L 60 425.8617629739055 L 61 425.91739646109636 L 62 425.9588025771917 L 63 425.9859566915767 L 64 425.998842651504 L 65 425.99745279170236 L 66 425.981787938936 L 67 425.95185741151334 L 68 425.9076790137434 L 69 425.84927902534537 L 70 425.7766921858155 L 71 425.68996167376247 L 72 425.58913908122236 L 73 425.4742843829688 L 74 425.3454659008368 L 75 425.2027602630811 L 76 425.04625235879354 L 77 424.8760352874065 L 78 424.69221030331227 L 79 424.49488675563106 L 80 424.2841820231648 L 81 424.0602214445733 L 82 423.82313824381635 L 83 423.57307345090453 L 84 423.31017581800717 L 85 423.0346017309662 L 86 422.7465151162694 L 87 422.44608734353824 L 88 422.1334971235875 L 89 421.80893040211856 L 90 421.47258024910866 L 91 421.12464674396256 L 92 420.76533685649406 L 93 420.3948643238094 L 94 420.0134495231646 L 95 419.621319340873 L 96 419.21870703734123 L 97 418.8058521083129 L 98 418.3830001424034 L 99 417.9504026750108 L 100 417.5083170386886 L 101 417.0570062100702 L 102 416.5967386534364 L 103 416.12778816101803 L 104 415.6504336901293 L 105 415.164959197229 L 106 414.6716534690075 L 107 414.17080995060087 L 108 413.6627265710338 L 109 413.14770556599467 L 110 412.62605329804995 L 111 412.0980800744026 L 112 411.56409996230474 L 113 411.0244306022329 L 114 410.47939301893854 L 115 409.9293114304849 L 116 409.37451305538457 L 117 408.81532791795166 L 118 408.25208865198584 L 119 407.68513030290336 L 120 407.1147901284337 L 121 406.5414073980006 L 122 405.96532319090585 L 123 405.3868801934368 L 124 404.8064224950179 L 125 404.22429538352753 L 126 403.640845139902 L 127 403.0564188321487 L 128 402.4713641088911 L 129 401.8860289925687 L 130 401.3007616724137 L 131 400.7159102973298 L 132 400.13182276879377 L 133 399.54884653390474 L 134 398.9673283787039 L 135 398.3876142218871 L 136 397.8100489090337 L 137 397.2349760074735 L 138 396.66273760191416 L 139 396.09367409095074 L 140 395.5281239845778 L 141 394.9664237028254 L 142 394.40890737563814 L 143 393.85590664411626 L 144 393.3077504632376 L 145 392.76476490617733 L 146 392.2272729703416 L 147 391.6955943852312 L 148 391.17004542224913 L 149 390.650938706565 L 150 390.1385830311486 L 151 389.63328317308293 L 152 389.1353397122663 L 153 388.6450488526108 L 154 388.1627022458445 L 155 387.68858681802055 L 156 387.2229845988384 L 157 386.7661725538769 L 158 386.31842241984003 L 159 385.8800005429134 L 160 385.4511677203268 L 161 385.03217904521756 L 162 384.6232837548879 L 163 384.22472508254435 L 164 383.83674011260973 L 165 383.45955963969226 L 166 383.09340803129646 L 167 382.73850309435704 L 168 382.39505594567555 L 169 382.06327088633645 L 170 381.74334528017795 L 171 381.4354694363889 L 172 381.1398264963029 L 173 380.8565923244553 L 174 380.58593540397 L 175 380.3280167363363 L 176 380.0829897456361 L 177 379.85100018727934 L 178 379.63218606130056 L 179 379.42667753026893 L 180 379.2345968418605 L 181 379.05605825613856 L 182 378.8911679775856 L 183 378.7400240919271 L 184 378.6027165077848 L 185 378.479326903194 L 186 378.3699286770172 L 187 378.2745869052823 L 188 378.1933583024721 L 189 378.12629118778705 L 190 378.0734254564027 L 191 378.03479255573757 L 192 378.0104154667468 L 193 378.0003086902517 L 194 378.0044782383138 L 195 378.02292163065863 L 196 378.0556278961511 L 197 378.10257757932186 L 198 378.16374275194005 L 199 378.2390870296272 L 200 378.32856559350006 L 201 378.43212521683154 L 202 378.54970429671295 L 203 378.68123289069854 L 204 378.8266327584114 L 205 378.9858174080847 L 206 379.15869214801205 L 207 379.3451541428753 L 208 379.5450924749161 L 209 379.7583882099165 L 210 379.98491446794714 L 211 380.22453649884216 L 212 380.4771117623565 L 213 380.74249001295607 L 214 381.02051338919233 L 215 381.31101650760667 L 216 381.61382656110965 L 217 381.92876342177595 L 218 382.2556397479944 L 219 382.5942610959089 L 220 382.9444260350843 L 221 383.30592626832805 L 222 383.678546755597 L 223 384.0620658419146 L 224 384.4562553892236 L 225 384.8608809120949 L 226 385.27570171721237 L 227 385.70047104655026 L 228 386.1349362241582 L 229 386.578838806467 L 230 387.03191473602453 L 231 387.4938944985719 L 232 387.96450328336476 L 233 388.44346114664637 L 234 388.9304831781726 L 235 389.4252796706928 L 236 389.92755629228304 L 237 390.4370142614308 L 238 390.9533505247668 L 239 391.47625793733727 L 240 392.0054254453108 L 241 392.5405382710099 L 242 393.0812781001583 L 243 393.627323271231 L 244 394.17834896679665 L 245 394.7340274067365 L 246 395.2940280432258 L 247 395.8580177573615 L 248 396.42566105732004 L 249 396.9966202779256 L 250 397.57055578151227 L 251 398.14712615995853 L 252 398.72598843777587 L 253 399.306798276129 L 254 399.8892101776675 L 255 400.47287769204644 L 256 401.057453622014 L 257 401.64259022994315 L 258 402.2279394446851 L 259 402.8131530686209 L 260 403.39788298478845 L 261 403.9817813639613 L 262 404.5645008715568 L 263 405.14569487424893 L 264 405.72501764616555 L 265 406.3021245745444 L 266 406.87667236472765 L 267 407.44831924437256 L 268 408.016725166756 L 269 408.58155201305283 L 270 409.1424637934676 L 271 409.6991268470992 L 272 410.25121004042103 L 273 410.798384964257 L 274 411.34032612913717 L 275 411.87671115891675 L 276 412.4072209825429 L 277 412.9315400238558 L 278 413.4493563893102 L 279 413.960362053507 L 280 414.4642530424235 L 281 414.9607296142335 L 282 415.4494964376104 L 283 415.9302627674061 L 284 416.4027426176022 L 285 416.8666549314301 L 286 417.3217237485587 L 287 417.7676783692509 L 288 418.20425351539046 L 289 418.6311894882836 L 290 419.04823232314254 L 291 419.455133940157 L 292 419.851652292066 L 293 420.2375515081405 L 294 420.6126020344924 L 295 420.9765807706254 L 296 421.3292712021477 L 297 421.67046352956635 L 298 421.99995479308734 L 299 422.3175489933474 L 300 422.62305720800487 L 301 422.9162977041212 L 302 423.19709604626536 L 303 423.4652852002779 L 304 423.7207056326316 L 305 423.96320540533094 L 306 424.19264026629304 L 307 424.40887373515665 L 308 424.6117771844681 L 309 424.801229916196 L 310 424.97711923352887 L 311 425.13934050791346 L 312 425.28779724129345 L 313 425.4224011235118 L 314 425.5430720848425 L 315 425.64973834362013 L 316 425.74233644893997 L 317 425.82081131840164 L 318 425.88511627087524 L 319 425.93521305427 L 320 425.9710718682885 L 321 425.9926713821535 L 322 425.99999874729696 L 323 425.99304960500257 L 324 425.97182808899896 L 325 425.93634682300063 L 326 425.8866269131986 L 327 425.82269793570526 L 328 425.7445979189612 L 329 425.6523733211132 L 330 425.5460790023792 L 331 425.4257781924137 L 332 425.29154245269586 L 333 425.1434516339605 L 334 424.98159382869875 L 335 424.80606531875554 L 336 424.6169705180563 L 337 424.4144219104956 L 338 424.1985399830256 L 339 423.96945315398415 L 340 423.7272976967039 L 341 423.4722176584503 L 342 423.20436477473385 L 343 422.9238983790499 L 344 422.63098530809805 L 345 422.32579980253894 L 346 422.00852340334626 L 347 421.6793448438162 L 348 421.33845993729864 L 349 420.98607146071686 L 350 420.6223890339446 L 351 420.24762899511285 L 352 419.8620142719198 L 353 419.46577424902193 L 354 419.05914463158285 L 355 418.64236730506343 L 356 418.21569019133506 L 357 417.7793671012022 L 358 417.33365758342165 L 359 416.8788267703093 L 360 416.4151452200244 L 361 415.94288875562734 L 362 415.46233830100465 L 363 414.9737797137605 L 364 414.4775036151727 L 365 413.9738052173155 L 366 413.4629841474513 L 367 412.94534426979624 L 368 412.42119350476474 L 369 411.89084364580214 L 370 411.35461017391265 L 371 410.8128120699941 L 372 410.2657716250909 L 373 409.71381424867747 L 374 409.1572682750873 L 375 408.5964647682014 L 376 408.0317373245137 L 377 407.46342187468974 L 378 406.89185648373655 L 379 406.3173811499034 L 380 405.7403376024321 L 381 405.1610690982779 L 382 404.5799202179217 L 383 403.99723666039455 L 384 403.4133650376372 L 385 402.82865266831624 L 386 402.2434473712204 L 387 401.6580972583583 L 388 401.0729505278833 L 389 400.4883552569655 L 390 399.90465919473706 L 391 399.32220955543164 L 392 398.7413528118427 L 393 398.16243448922233 L 394 397.5857989597444 L 395 397.01178923765275 L 396 396.44074677521814 L 397 395.87301125962324 L 398 395.3089204108988 L 399 394.74880978102874 L 400 394.1930125543461 L 401 393.6418593493365 L 402 393.0956780219683 L 403 392.554793470666 L 404 392.0195274430433 L 405 391.4901983445091 L 406 390.96712104886404 L 407 390.4506067109951 L 408 389.9409625817845 L 409 389.43849182533967 L 410 388.9434933386551 L 411 388.4562615738119 L 412 387.9770863628216 L 413 387.5062527452184 L 414 387.044040798502 L 415 386.59072547153255 L 416 386.1465764209755 L 417 385.7118578508958 L 418 385.28682835559425 L 419 384.87174076578214 L 420 384.4668419981832 L 421 384.0723729086546 L 422 383.6885681489122 L 423 383.3156560269476 L 424 382.9538583712173 L 425 382.6033903986877 L 426 382.2644605868121 L 427 381.9372705495168 L 428 381.62201491727046 L 429 381.3188812213068 L 430 381.0280497820714 L 431 380.74969360195684 L 432 380.4839782623915 L 433 380.2310618253429 L 434 379.9910947392937 L 435 379.76421974974676 L 436 379.5505718143122 L 437 379.3502780224275 L 438 379.16345751975757 L 439 378.9902214373206 L 440 378.83067282538104 L 441 378.68490659214996 L 442 378.5530094473282 L 443 378.43505985052695 L 444 378.33112796459545 L 445 378.2412756138847 L 446 378.1655562474703 L 447 378.10401490735893 L 448 378.056688201694 L 449 378.0236042829797 L 450 378.0047828313343 L 451 378.0002350427831 L 452 378.00996362259866 L 453 378.0339627836913 L 454 378.07221825005206 L 455 378.1247072652442 L 456 378.19139860594044 L 457 378.27225260049613 L 458 378.36722115254827 L 459 378.47624776962545 L 460 378.5992675967531 L 461 378.73620745503257 L 462 378.88698588517184 L 463 379.05151319594205 L 464 379.22969151753085 L 465 379.4214148597605 L 466 379.6265691751365 L 467 379.8450324266898 L 468 380.0766746605703 L 469 380.3213580833511 L 470 380.5789371439951 L 471 380.8492586204372 L 472 381.1321617107285 L 473 381.42747812869055 L 474 381.7350322040209 L 475 382.05464098679164 L 476 382.3861143562775 L 477 382.7292551340506 L 478 383.08385920127245 L 479 383.44971562011534 L 480 383.82660675923927 L 481 384.2143084232513 L 482 384.612589986069 L 483 385.02121452810934 L 484 385.4399389772217 L 485 385.86851425327995 L 486 386.3066854163493 L 487 386.75419181833837 L 488 387.2107672580466 L 489 387.6761401395157 L 490 388.15003363358943 L 491 388.63216584258663 L 492 389.12224996798955 L 493 389.61999448104706 L 494 390.125103296192 L 495 390.6372759471687 L 496 391.15620776576714 L 497 391.68159006305586 L 498 392.21311031300706 L 499 392.7504523384042 L 500 393.2932964989214 L 501 393.8413198812627 L 502 394.39419649124886 L 503 394.95159744773633 L 504 395.51319117825363 L 505 396.0786436162386 L 506 396.6476183997597 L 507 397.2197770716022 L 508 397.7947792806012 L 509 398.37228298410054 L 510 398.9519446514193 L 511 399.5334194682016 L 512 400.11636154153166 L 513 400.7004241056895 L 514 401.285259728426 L 515 401.8705205176349 L 516 402.4558583282975 L 517 403.04092496957867 L 518 403.6253724119496 L 519 404.20885299421474 L 520 404.79101963031957 L 521 405.3715260158164 L 522 405.9500268338652 L 523 406.52617796064663 L 524 407.0996366700658 L 525 407.6700618376246 L 526 408.23711414334076 L 527 408.8004562735942 L 528 409.3597531217794 L 529 409.9146719876451 L 530 410.46488277520257 L 531 411.01005818908465 L 532 411.5498739292391 L 533 412.0840088838394 L 534 412.6121453203002 L 535 413.13396907428177 L 536 413.64916973657165 L 537 414.15744083773376 L 538 414.65848003041225 L 539 415.1519892691851 L 540 415.6376749878568 L 541 416.1152482740886 L 542 416.5844250412582 L 543 417.044926197451 L 544 417.4964778114783 L 545 417.9388112758272 L 546 418.37166346644244 L 547 418.79477689924744 L 548 419.2078998833093 L 549 419.61078667055887 L 550 420.0031976019746 L 551 420.3848992501452 L 552 420.7556645581246 L 553 421.1152729744981 L 554 421.4635105845783 L 555 421.800170237653 L 556 422.12505167021015 L 557 422.4379616250651 L 558 422.7387139663207 L 559 423.0271297900911 L 560 423.30303753092346 L 561 423.5662730638545 L 562 423.8166798020408 L 563 424.0541087899055 L 564 424.27841879174485 L 565 424.4894763757432 L 566 424.68715599334536 L 567 424.87134005393966 L 568 425.0419189948075 L 569 425.19879134629696 L 570 425.3418637921826 L 571 425.47105122517513 L 572 425.58627679754767 L 573 425.68747196684916 L 574 425.7745765366769 L 575 425.84753869248493 L 576 425.906315032406 L 577 425.95087059306934 L 578 425.98117887039894 L 579 425.99722183537926 L 580 425.99898994478036 L 581 425.9864821468344 L 582 425.95970588186134 L 583 425.9186770778431 L 584 425.8634201409486 L 585 425.79396794101604 L 586 425.71036179199945 L 587 425.61265142739353 L 588 425.50089497064903 L 589 425.375158900598 L 590 425.23551801190854 L 591 425.08205537059274 L 592 424.9148622645945 L 593 424.73403814948654 L 594 424.53969058930886 L 595 424.33193519258367 L 596 424.1108955435452 L 597 423.8767031286251 L 598 423.6294972582369 L 599 423.36942498390704 L 600 423.0966410108001 L 601 422.8113076056922 L 602 422.5135945004455 L 603 422.20367879104265 L 604 421.8817448322403 L 605 421.54798412790507 L 606 421.2025952170964 L 607 420.8457835559648 L 608 420.47776139553514 L 609 420.09874765544856 L 610 419.70896779373675 L 611 419.3086536727075 L 612 418.89804342102013 L 613 418.4773812920338 L 614 418.046917518512 L 615 417.6069081637708 L 616 417.15761496935835 L 617 416.6993051993565 L 618 416.23225148139795 L 619 415.75673164449194 L 620 415.2730285537571 L 621 414.78142994215716 L 622 414.2822282393423 L 623 413.7757203976956 L 624 413.2622077156898 L 625 412.7419956586585 L 626 412.2153936770888 L 627 411.6827150225431 L 628 411.1442765613202 L 629 410.6003985859658 L 630 410.05140462474526 L 631 409.4976212491909 L 632 408.93937787984004 L 633 408.37700659027723 L 634 407.8108419095991 L 635 407.24122062341786 L 636 406.6684815735234 L 637 406.0929654563211 L 638 405.5150146201676 L 639 404.93497286172294 L 640 404.3531852214417 L 641 403.76999777832424 L 642 403.18575744404984 L 643 402.6008117566149 L 644 402.01550867359833 L 645 401.4301963651773 L 646 400.84522300701695 L 647 400.26093657315613 L 648 399.6776846290139 L 649 399.09581412463814 L 650 398.5156711883214 L 651 397.93760092070426 L 652 397.3619471894913 L 653 396.7890524248991 L 654 396.2192574159611 L 655 395.6529011078066 L 656 395.0903204000384 L 657 394.5318499463266 L 658 393.97782195533773 L 659 393.42856599311966 L 660 392.8844087870575 L 661 392.345674031518 L 662 391.8126821952989 L 663 391.28575033099645 L 664 390.76519188640555 L 665 390.2513165180633 L 666 389.74442990704887 L 667 389.2448335771477 L 668 388.7528247154887 L 669 388.26869599576105 L 670 387.7927354041159 L 671 387.3252260678565 L 672 386.8664460870191 L 673 386.41666836894314 L 674 385.9761604659318 L 675 385.5451844160966 L 676 385.12399658748376 L 677 384.71284752557153 L 678 384.3119818042327 L 679 383.92163788024845 L 680 383.5420479514617 L 681 383.1734378186526 L 682 382.81602675122 L 683 382.47002735674863 L 684 382.13564545453795 L 685 381.8130799531696 L 686 381.5025227321862 L 687 381.2041585279505 L 688 380.91816482375424 L 689 380.6447117442416 L 690 380.38396195420955 L 691 380.13607056184594 L 692 379.90118502646305 L 693 379.6794450707803 L 694 379.4709825978099 L 695 379.2759216123935 L 696 379.0943781474376 L 697 378.92646019489064 L 698 378.7722676415036 L 699 378.6318922094119 L 700 378.50541740157405 L 701 378.39291845209965 L 702 378.2944622814959 L 703 378.21010745685965 L 704 378.1399041570386 L 705 378.083894142782 L 706 378.04211073189947 L 707 378.01457877944125 L 708 378.0013146629133 L 709 378.0023262725352 L 710 378.01761300654636 L 711 378.04716577156415 L 712 378.09096698799317 L 713 378.14899060048225 L 714 378.2212020934241 L 715 378.3075585114865 L 716 378.408008485165 L 717 378.5224922613399 L 718 378.65094173882096 L 719 378.79328050885744 L 720 378.94942390059043 L 721 379.1192790314195 L 722 379.3027448622544 L 723 379.4997122576187 L 724 379.71006405056943 L 725 379.93367511239427 L 726 380.1704124270452 L 727 380.42013517026356 L 728 380.6826947933498 L 729 380.95793511152857 L 730 381.245692396856 L 731 381.5457954756138 L 732 381.8580658301328 L 733 382.18231770498494 L 734 382.51835821748097 L 735 382.8659874724073 L 736 383.2249986809346 L 737 383.5951782836272 L 738 383.97630607747976 L 739 384.3681553469062 L 740 384.77049299860226 L 741 385.1830797002023 L 742 385.605670022647 L 743 386.0380125861782 L 744 386.4798502098731 L 745 386.9309200646298 L 746 387.3909538295117 L 747 387.85967785136023 L 748 388.3368133075781 L 749 388.8220763719886 L 750 389.31517838367023 L 751 389.81582601866876 L 752 390.32372146448176 L 753 390.838562597214 L 754 391.36004316129674 L 755 391.88785295166593 L 756 392.42167799828854 L 757 392.96120075292947 L 758 393.50610027804595 L 759 394.05605243769935 L 760 394.61073009036846 L 761 395.1698032835515 L 762 395.7329394500392 L 763 396.29980360574456 L 764 396.87005854896944 L 765 397.44336506099035 L 766 398.0193821078443 L 767 398.5977670431945 L 768 399.178175812155 L 769 399.7602631559535 L 770 400.34368281730946 L 771 400.92808774640764 L 772 401.5131303073416 L 773 402.098462484907 L 774 402.68373609161927 L 775 403.26860297483546 L 776 403.8527152238537 L 777 404.43572537686975 L 778 405.0172866276659 L 779 405.59705303191083 L 780 406.1746797129456 L 781 406.7498230669352 L 782 407.3221409672631 L 783 407.89129296804634 L 784 408.4569405066518 L 785 409.0187471050914 L 786 409.5763785701777 L 787 410.12950319232004 L 788 410.6777919428437 L 789 411.2209186697139 L 790 411.7585602915491 L 791 412.2903969898068 L 792 412.8161123990299 L 793 413.3353937950375 L 794 413.8479322809505 L 795 414.35342297094 L 796 414.8515651715907 L 797 415.3420625607691 L 798 415.8246233638922 L 799 416.29896052749103 L 800 416.76479188996575 L 801 417.2218403494306 L 802 417.6698340285493 L 803 418.10850643626236 L 804 418.5375966263107 L 805 418.9568493524606 L 806 419.3660152203381 L 807 419.76485083578234 L 808 420.1531189496296 L 809 420.5305885988422 L 810 420.8970352438979 L 811 421.25224090235804 L 812 421.5959942785355 L 813 421.928090889185 L 814 422.2483331851407 L 815 422.5565306688294 L 816 422.85250000758856 L 817 423.136065142723 L 818 423.4070573942339 L 819 423.6653155611588 L 820 423.91068601746304 L 821 424.1430228034247 L 822 424.3621877124593 L 823 424.56805037333277 L 824 424.7604883277134 L 825 424.93938710301654 L 826 425.1046402804993 L 827 425.2561495585642 L 828 425.3938248112342 L 829 425.5175841417646 L 830 425.6273539313599 L 831 425.7230688829659 L 832 425.8046720601121 L 833 425.8721149207809 L 834 425.92535734628257 L 835 425.9643676651202 L 836 425.98912267182993 L 837 425.99960764078435 L 838 425.99581633495245 L 839 425.97775100960956 L 840 425.9454224109959 L 841 425.8988497699241 L 842 425.8380607903396 L 843 425.76309163284094 L 844 425.67398689316946 L 845 425.57079957568106 L 846 425.45359106181684 L 847 425.3224310735894 L 848 425.1773976321092 L 849 425.01857701117245 L 850 424.8460636859416 L 851 424.6599602767456 L 852 424.46037748803644 L 853 424.24743404253553 L 854 424.02125661061143 L 855 423.7819797349288 L 856 423.529745750416 L 857 423.26470469959554 L 858 422.98701424333126 L 859 422.6968395670426 L 860 422.39435328244406 L 861 422.07973532486534 L 862 421.7531728462167 L 863 421.41486010366066 L 864 421.06499834405696 L 865 420.7037956842505 L 866 420.3314669872716 L 867 419.94823373452397 L 868 419.55432389403535 L 869 419.14997178485015 L 870 418.73541793764315 L 871 418.3109089516389 L 872 417.87669734792127 L 873 417.4330414192201 L 874 416.9802050762644 L 875 416.5184576907939 L 876 416.04807393532224 L 877 415.56933361974677 L 878 415.0825215249021 L 879 414.5879272331573 L 880 414.0858449561561 L 881 413.5765733598044 L 882 413.06041538660673 L 883 412.5376780754602 L 884 412.0086723790104 L 885 411.4737129786808 L 886 410.93311809748184 L 887 410.38720931071543 L 888 409.83631135468414 L 889 409.2807519335204 L 890 408.7208615242501 L 891 408.15697318020705 L 892 407.5894223329143 L 893 407.01854659255184 L 894 406.44468554712716 L 895 405.86818056046974 L 896 405.2893745691696 L 897 404.70861187857975 L 898 404.1262379580045 L 899 403.5425992351957 L 900 402.9580428902783 L 901 402.3729166492292 L 902 401.7875685770303 L 903 401.20234687062094 L 904 400.6175996517711 L 905 400.0336747599997 L 906 399.45091954566084 L 907 398.86968066332054 L 908 398.29030386554797 L 909 397.7131337972428 L 910 397.13851379062197 L 911 396.5667856609866 L 912 395.9982895033917 L 913 395.433363490339 L 914 394.87234367061416 L 915 394.3155637693856 L 916 393.7633549896874 L 917 393.2160458154012 L 918 392.67396181585656 L 919 392.137425452164 L 920 391.60675588539806 L 921 391.0822687867424 L 922 390.5642761497121 L 923 390.05308610456206 L 924 389.54900273499493 L 925 389.05232589727524 L 926 388.5633510418589 L 927 388.0823690376426 L 928 387.60966599893976 L 929 387.1455231152836 L 930 386.69021648416077 L 931 386.2440169467731 L 932 385.8071899269267 L 933 385.3799952731433 L 934 384.9626871040885 L 935 384.55551365740763 L 936 384.1587171420608 L 937 383.7725335942438 L 938 383.3971927369809 L 939 383.03291784347283 L 940 382.6799256042821 L 941 382.3384259984332 L 942 382.00862216850624 L 943 381.6907102997959 L 944 381.3848795036104 L 945 381.0913117047774 L 946 380.8101815334253 L 947 380.5416562211038 L 948 380.28589550130533 L 949 380.0430515144469 L 950 379.81326871736877 L 951 379.5966837974036 L 952 379.3934255910673 L 953 379.20361500742007 L 954 379.02736495614323 L 955 378.86478028037425 L 956 378.7159576943403 L 957 378.58098572582765 L 958 378.4599446635201 L 959 378.3529065092392 L 960 378.25993493511345 L 961 378.1810852457029 L 962 378.1164043451006 L 963 378.06593070903193 L 964 378.0296943619668 L 965 378.0077168592596 L 966 378.00001127432677 L 967 378.0065821908704 L 968 378.0274257001511 L 969 378.0625294033135 L 970 378.1118724187614 L 971 378.1754253945797 L 972 378.2531505259943 L 973 378.34500157786033 L 974 378.45092391216565 L 975 378.5708545205322 L 976 378.704722061697 L 977 378.8524469039498 L 978 379.0139411725022 L 979 379.18910880176065 L 980 379.3778455924714 L 981 379.5800392737035 L 982 379.7955695696345 L 983 380.02430827109623 L 984 380.266119311841 L 985 380.52085884948133 L 986 380.788375351055 L 987 381.0685096831651 L 988 381.3610952066414 L 989 381.6659578756665 L 990 381.9829163413075 L 991 382.3117820593924 L 992 382.65235940266626 L 993 383.0044457771614 L 994 383.3678317427108 L 995 383.7423011375349 L 996 384.12763120682615 L 997 384.52359273525593 L 998 384.92995018332425 L 999 385.34646182747144 L 1000 385.7728799038684 L 1001 386.2089507558003 L 1002 386.65441498455516 L 1003 387.10900760372874 L 1004 387.57245819685215 L 1005 388.0444910782511 L 1006 388.5248254570384 L 1007 389.0131756041436 L 1008 389.50925102228035 L 1009 390.01275661875013 L 1010 390.5233928809792 L 1011 391.0408560546853 L 1012 391.56483832456695 L 1013 392.09502799740903 L 1014 392.6311096874947 L 1015 393.17276450421434 L 1016 393.71967024175837 L 1017 394.27150157078376 L 1018 394.8279302319369 L 1019 395.38862523112067 L 1020 395.9532530363872 L 1021 396.5214777763415 L 1022 397.09296143993566 L 1023 397.6673640775365 L 1024 398.24434400314556 L 1025 398.82355799765344 L 1026 399.40466151300467 L 1027 399.9873088771537 L 1028 400.5711534996896 L 1029 401.1558480780069 L 1030 401.74104480390014 L 1031 402.326395570459 L 1032 402.9115521791416 L 1033 403.49616654690146 L 1034 404.07989091324674 L 1035 404.66237804710687 L 1036 405.2432814533848 L 1037 405.82225557907054 L 1038 406.3989560187958 L 1039 406.97303971970445 L 1040 407.5441651855193 L 1041 408.1119926796825 L 1042 408.6761844274496 L 1043 409.23640481681633 L 1044 409.7923205981588 L 1045 410.3436010824686 L 1046 410.8899183380646 L 1047 411.4309473856648 L 1048 411.96636639170157 L 1049 412.4958568597655 L 1050 413.019103820065 L 1051 413.53579601678723 L 1052 414.0456260932499 L 1053 414.5482907747337 L 1054 415.04349104888723 L 1055 415.5309323435951 L 1056 416.01032470220616 L 1057 416.4813829560148 L 1058 416.94382689389533 L 1059 417.3973814289869 L 1060 417.8417767623299 L 1061 418.276748543357 L 1062 418.70203802714354 L 1063 419.1173922283232 L 1064 419.5225640715771 L 1065 419.91731253860786 L 1066 420.30140281151046 L 1067 420.6746064124548 L 1068 421.0367013395966 L 1069 421.3874721991363 L 1070 421.7267103334468 L 1071 422.05421394519493 L 1072 422.36978821738086 L 1073 422.67324542922637 L 1074 422.964405067841 L 1075 423.2430939356014 L 1076 423.5091462531783 L 1077 423.76240375815144 L 1078 424.0027157991522 L 1079 424.22993942547987 L 1080 424.4439394721361 L 1081 424.6445886402285 L 1082 424.83176757269496 L 1083 425.0053649253037 L 1084 425.16527743288714 L 1085 425.31140997076926 L 1086 425.4436756113512 L 1087 425.5619956758204 L 1088 425.66629978095324 L 1089 425.75652588098257 L 1090 425.8326203045061 L 1091 425.894537786413 L 1092 425.9422414948101 L 1093 425.97570305293135 L 1094 425.9949025560181 L 1095 425.9998285831594 L 1096 425.9904782040858 L 1097 425.9668569809124 L 1098 425.9289789648303 L 1099 425.8768666877482 L 1100 425.8105511488889 L 1101 425.73007179634965 L 1102 425.63547650363614 L 1103 425.5268215411846 L 1104 425.4041715428891 L 1105 425.2675994676542 L 1106 425.11718655599435 L 1107 424.95302228170806 L 1108 424.77520429865393 L 1109 424.58383838266064 L 1110 424.37903836860596 L 1111 424.16092608270145 L 1112 423.9296312700235 L 1113 423.68529151733406 L 1114 423.42805217123635 L 1115 423.15806625171496 L 1116 422.8754943611111 L 1117 422.58050458858776 L 1118 422.2732724101406 L 1119 421.953980584216 L 1120 421.6228190429959 L 1121 421.2799847794157 L 1122 420.92568172998256 L 1123 420.5601206534625 L 1124 420.18351900550965 L 1125 419.7961008093119 L 1126 419.3980965223295 L 1127 418.9897428992069 L 1128 418.5712828509372 L 1129 418.14296530036654 L 1130 417.7050450341205 L 1131 417.2577825510435 L 1132 416.8014439072397 L 1133 416.3363005578083 L 1134 415.86262919536733 L 1135 415.38071158546205 L 1136 414.890834398955 L 1137 414.39328904149863 L 1138 413.8883714801916 L 1139 413.3763820675213 L 1140 412.8576253626977 L 1141 412.332409950485 L 1142 411.80104825763857 L 1143 411.2638563670567 L 1144 410.7211538297569 L 1145 410.1732634747898 L 1146 409.6205112172026 L 1147 409.0632258641676 L 1148 408.50173891938886 L 1149 407.93638438590654 L 1150 407.3674985674133 L 1151 406.79541986820243 L 1152 406.22048859186714 L 1153 405.6430467388686 L 1154 405.06343780309595 L 1155 404.4820065675372 L 1156 403.8990988991839 L 1157 403.31506154329 L 1158 402.73024191710925 L 1159 402.1449879032324 L 1160 401.5596476426478 L 1161 400.97456932764794 L 1162 400.3901009947058 L 1163 399.8065903174437 L 1164 399.2243843998184 L 1165 398.64382956964425 L 1166 398.065271172579 L 1167 397.489053366693 L 1168 396.9155189177455 L 1169 396.34500899528865 L 1170 395.7778629697216 L 1171 395.21441821041395 L 1172 394.65500988502083 L 1173 394.09997076010603 L 1174 393.5496310031949 L 1175 393.0043179863726 L 1176 392.4643560915453 L 1177 391.93006651748004 L 1178 391.4017670887384 L 1179 390.8797720666167 L 1180 390.3643919622071 L 1181 389.8559333516877 L 1182 389.354698693955 L 1183 388.8609861507044 L 1184 388.3750894090678 L 1185 387.89729750691225 L 1186 387.42789466090437 L 1187 386.967160097443 L 1188 386.5153678865601 L 1189 386.07278677888877 L 1190 385.63968004579596 L 1191 385.216305322774 L 1192 384.80291445618536 L 1193 384.39975335345054 L 1194 384.00706183676874 L 1195 383.6250735004587 L 1196 383.2540155720041 L 1197 382.89410877688647 L 1198 382.54556720728505 L 1199 382.20859819472366 L 1200 381.8834021867383 L 1201 381.57017262764026 L 1202 381.2690958434447 L 1203 380.98035093103374 L 1204 380.7041096516201 L 1205 380.4405363285741 L 1206 380.189787749675 L 1207 379.9520130738453 L 1208 379.7273537424226 L 1209 379.51594339502304 L 1210 379.31790779004456 L 1211 379.1333647298595 L 1212 378.9624239907391 L 1213 378.80518725755263 L 1214 378.66174806327945 L 1215 378.5321917333709 L 1216 378.41659533499376 L 1217 378.3150276311868 L 1218 378.2275490399564 L 1219 378.1542115983368 L 1220 378.0950589314358 L 1221 378.050126226484 L 1222 378.0194402119033 L 1223 378.003019141408 L 1224 378.0008727831458 L 1225 378.01300241388753 L 1226 378.0394008182678 L 1227 378.0800522930766 L 1228 378.1349326566011 L 1229 378.2040092630096 L 1230 378.2872410217713 L 1231 378.3845784220995 L 1232 378.49596356240266 L 1233 378.62133018472815 L 1234 378.76060371417555 L 1235 378.913701303258 L 1236 379.0805318811845 L 1237 379.260996208034 L 1238 379.4549869337879 L 1239 379.66238866218873 L 1240 379.8830780193834 L 1241 380.11692372731306 L 1242 380.3637866818042 L 1243 380.62352003531555 L 1244 380.895969284291 L 1245 381.1809723610669 L 1246 381.47835973027804 L 1247 381.7879544897075 L 1248 382.10957247551704 L 1249 382.4430223717981 L 1250 382.7881058243768 L 1251 383.1446175588059 L 1252 383.5123455024731 L 1253 383.8910709107537 L 1254 384.2805684971311 L 1255 384.6806065672106 L 1256 385.0909471565429 L 1257 385.51134617217883 L 1258 385.9415535378688 L 1259 386.3813133428223 L 1260 386.83036399393694 L 1261 387.28843837140886 L 1262 387.7552639876297 L 1263 388.23056314927743 L 1264 388.71405312250323 L 1265 389.20544630111726 L 1266 389.704450377672 L 1267 390.21076851734335 L 1268 390.7240995345036 L 1269 391.2441380718833 L 1270 391.7705747822143 L 1271 392.30309651224644 L 1272 392.8413864890283 L 1273 393.38512450834077 L 1274 393.9339871251721 L 1275 394.4876478461206 L 1276 395.0457773236106 L 1277 395.6080435518067 L 1278 396.1741120641086 L 1279 396.7436461321101 L 1280 397.3163069659035 L 1281 397.89175391561054 L 1282 398.46964467401943 L 1283 399.0496354802074 L 1284 399.6313813240291 L 1285 400.2145361513471 L 1286 400.7987530698837 L 1287 401.3836845555714 L 1288 401.9689826592793 L 1289 402.55429921379215 L 1290 403.1392860409192 L 1291 403.7235951586092 L 1292 404.30687898794986 L 1293 404.88879055992595 L 1294 405.468983721816 L 1295 406.0471133431022 L 1296 406.6228355207733 L 1297 407.1958077838969 L 1298 407.7656892973396 L 1299 408.3321410645141 L 1300 408.89482612903345 L 1301 409.4534097751507 L 1302 410.0075597268661 L 1303 410.55694634558284 L 1304 411.1012428261944 L 1305 411.64012539148575 L 1306 412.17327348473407 L 1307 412.7003699603926 L 1308 413.2211012727469 L 1309 413.73515766242866 L 1310 414.2422333406773 L 1311 414.7420266712398 L 1312 415.2342403498006 L 1313 415.7185815808343 L 1314 416.1947622517765 L 1315 416.66249910440854 L 1316 417.1215139033553 L 1317 417.5715336015947 L 1318 418.0122905028804 L 1319 418.4435224209831 L 1320 418.8649728356524 L 1321 419.2763910452095 L 1322 419.67753231567787 L 1323 420.0681580263646 L 1324 420.4480358118048 L 1325 420.8169396999857 L 1326 421.17465024676625 L 1327 421.52095466641543 L 1328 421.8556469581881 L 1329 422.1785280288659 L 1330 422.4894058111886 L 1331 422.7880953781059 L 1332 423.07441905278256 L 1333 423.34820651429027 L 1334 423.6092948989231 L 1335 423.8575288970788 L 1336 424.09276084564453 L 1337 424.3148508158353 L 1338 424.52366669643135 L 1339 424.7190842723648 L 1340 424.9009872986098 L 1341 425.06926756933115 L 1342 425.22382498225124 L 1343 425.36456759819634 L 1344 425.491411695787 L 1345 425.60428182123997 L 1346 425.7031108332523 L 1347 425.78783994294076 L 1348 425.85841874881254 L 1349 425.91480526674684 L 1350 425.9569659549692 L 1351 425.9848757340042 L 1352 425.9985180015941 L 1353 425.99788464257443 L 1354 425.9829760337016 L 1355 425.953801043429 L 1356 425.9103770266309 L 1357 425.85272981427954 L 1358 425.78089369807896 L 1359 425.69491141006677 L 1360 425.59483409719456 L 1361 425.480721290903 L 1362 425.35264087170924 L 1363 425.210669028828 L 1364 425.05489021485005 L 1365 424.88539709550497 L 1366 424.70229049453883 L 1367 424.5056793337386 L 1368 424.29568056813963 L 1369 424.0724191164541 L 1370 423.836027786763 L 1371 423.5866471975143 L 1372 423.3244256938757 L 1373 423.0495192594906 L 1374 422.76209142369055 L 1375 422.46231316421955 L 1376 422.15036280552636 L 1377 421.826425912688 L 1378 421.49069518102544 L 1379 421.1433703214777 L 1380 420.7846579418031 L 1381 420.4147714236776 L 1382 420.03393079576387 L 1383 419.6423626028261 L 1384 419.24029977096893 L 1385 418.82798146908016 L 1386 418.40565296656035 L 1387 417.97356548742283 L 1388 417.5319760608523 L 1389 417.08114736830964 L 1390 416.62134758727467 L 1391 416.15285023172 L 1392 415.67593398940926 L 1393 415.19088255611894 L 1394 414.6979844668806 L 1395 414.19753292434433 L 1396 413.68982562436616 L 1397 413.175164578922 L 1398 412.6538559364546 L 1399 412.1262097997597 L 1400 411.5925400415204 L 1401 411.0531641175978 L 1402 410.50840287819165 L 1403 409.95858037698065 L 1404 409.40402367835816 L 1405 408.84506266287605 L 1406 408.2820298310139 L 1407 407.71526010538963 L 1408 407.14509063152957 L 1409 406.57186057731525 L 1410 405.99591093122825 L 1411 405.4175842995117 L 1412 404.83722470236944 L 1413 404.25517736932386 L 1414 403.6717885338546 L 1415 403.08740522744006 L 1416 402.5023750731245 L 1417 401.91704607873214 L 1418 401.3317664298538 L 1419 400.74688428272685 L 1420 400.16274755713283 L 1421 399.5797037294361 L 1422 398.99809962588574 L 1423 398.4182812163042 L 1424 397.84059340828634 L 1425 397.2653798420286 L 1426 396.6929826859137 L 1427 396.1237424329701 L 1428 395.5579976983283 L 1429 394.9960850177937 L 1430 394.4383386476573 L 1431 393.8850903658613 L 1432 393.3366692746403 L 1433 392.7934016047523 L 1434 392.25561052141967 L 1435 391.7236159320924 L 1436 391.19773429615 L 1437 390.678278436654 L 1438 390.16555735426414 L 1439 389.65987604342723 L 1440 389.16153531095046 L 1441 388.67083159706505 L 1442 388.188056799087 L 1443 387.7134980977811 L 1444 387.24743778652993 L 1445 386.7901531034104 L 1446 386.3419160662776 L 1447 385.90299331095355 L 1448 385.4736459326176 L 1449 385.05412933049337 L 1450 384.6446930559225 L 1451 384.24558066391853 L 1452 383.85702956828686 L 1453 383.4792709003982 L 1454 383.11252937169894 L 1455 382.75702314004053 L 1456 382.41296367990725 L 1457 382.0805556566201 L 1458 381.75999680459 L 1459 381.45147780969506 L 1460 381.15518219585 L 1461 380.87128621583634 L 1462 380.59995874645745 L 1463 380.34136118808163 L 1464 380.095647368632 L 1465 379.86296345208183 L 1466 379.64344785150763 L 1467 379.4372311467539 L 1468 379.244436006757 L 1469 379.065177116575 L 1470 378.89956110916677 L 1471 378.74768650196086 L 1472 378.6096436382519 L 1473 378.48551463345973 L 1474 378.37537332628233 L 1475 378.27928523477266 L 1476 378.19730751736523 L 1477 378.12948893887466 L 1478 378.0758698414881 L 1479 378.03648212076735 L 1480 378.01134920667556 L 1481 378.00048604964 L 1482 378.0038991116586 L 1483 378.02158636245605 L 1484 378.0535372806915 L 1485 378.09973286021716 L 1486 378.16014562138434 L 1487 378.2347396273898 L 1488 378.3234705056527 L 1489 378.4262854742103 L 1490 378.543123373115 L 1491 378.67391470081594 L 1492 378.8185816555023 L 1493 378.9770381813841 L 1494 379.1491900198825 L 1495 379.3349347657005 L 1496 379.53416192773864 L 1497 379.74675299482175 L 1498 379.97258150619507 L 1499 380.2115131267508 L 1500 380.46340572693737 L 1501 380.7281094673061 L 1502 381.005466887644 L 1503 381.29531300063917 L 1504 381.5974753900249 L 1505 381.91177431314185 L 1506 382.2380228078587 L 1507 382.57602680378795 L 1508 382.92558523772885 L 1509 383.28649017327143 L 1510 383.6585269244879 L 1511 384.0414741836398 L 1512 384.43510415282384 L 1513 384.83918267947865 L 1514 385.253469395671 L 1515 385.6777178610804 L 1516 386.1116757095948 L 1517 386.555084799432 L 1518 387.00768136669615 L 1519 387.469196182279 L 1520 387.93935471201223 L 1521 388.4178772799752 L 1522 388.90447923486136 L 1523 389.3988711193042 L 1524 389.90075884206294 L 1525 390.40984385296326 L 1526 390.9258233204917 L 1527 391.44839031193624 L 1528 391.9772339759664 L 1529 392.51203972754473 L 1530 393.05248943505956 L 1531 393.5982616095657 L 1532 394.1490315960254 L 1533 394.7044717664293 L 1534 395.2642517146885 L 1535 395.82803845317744 L 1536 396.3954966108134 L 1537 396.9662886325534 L 1538 397.5400749801906 L 1539 398.1165143343293" stroke-linecap="round" stroke-linejoin="round" stroke-miterlimit="10" stroke-width="13"/></g></svg>